<mxfile host="Electron" agent="Mozilla/5.0 (Windows NT 10.0; Win64; x64) AppleWebKit/537.36 (KHTML, like Gecko) draw.io/26.0.9 Chrome/128.0.6613.186 Electron/32.2.5 Safari/537.36" version="26.0.9">
  <diagram name="Page-1" id="tl06uQV7rvQTpGtBYYv-">
    <mxGraphModel dx="3046" dy="540" grid="1" gridSize="10" guides="1" tooltips="1" connect="1" arrows="1" fold="1" page="1" pageScale="1" pageWidth="850" pageHeight="1100" math="0" shadow="0">
      <root>
        <mxCell id="0" />
        <mxCell id="1" parent="0" />
        <mxCell id="yRr3s-q63M07JjMzN6V9-1" value="" style="rounded=0;whiteSpace=wrap;html=1;fillColor=#fff2cc;strokeColor=#d6b656;" vertex="1" parent="1">
          <mxGeometry x="625" y="2016" width="381" height="74" as="geometry" />
        </mxCell>
        <mxCell id="yRr3s-q63M07JjMzN6V9-2" value="&lt;span class=&quot;hljs-attr&quot;&gt;&lt;span class=&quot;hljs-attr&quot;&gt;MonthID&lt;/span&gt;&lt;span class=&quot;hljs-punctuation&quot;&gt;:&lt;/span&gt;&amp;nbsp;&lt;span class=&quot;hljs-number&quot;&gt;1,&amp;nbsp;&lt;/span&gt;ProductID&lt;/span&gt;&lt;span class=&quot;hljs-punctuation&quot;&gt;:&lt;/span&gt; &lt;span class=&quot;hljs-number&quot;&gt;3&lt;/span&gt;&lt;span class=&quot;hljs-punctuation&quot;&gt;,&lt;/span&gt; &lt;span class=&quot;hljs-attr&quot;&gt;YearID&lt;/span&gt;&lt;span class=&quot;hljs-punctuation&quot;&gt;:&lt;/span&gt; &lt;span class=&quot;hljs-number&quot;&gt;2021&lt;/span&gt;&lt;span class=&quot;hljs-punctuation&quot;&gt;,&amp;nbsp;&lt;/span&gt;&lt;span class=&quot;hljs-attr&quot;&gt;QuantitySold&lt;/span&gt;&lt;span class=&quot;hljs-punctuation&quot;&gt;:&lt;/span&gt; &lt;span class=&quot;hljs-number&quot;&gt;20&lt;/span&gt;&lt;br&gt;&lt;div&gt;&lt;span class=&quot;hljs-number&quot;&gt;&lt;br&gt;&lt;/span&gt;&lt;/div&gt;" style="text;html=1;align=center;verticalAlign=middle;whiteSpace=wrap;rounded=0;" vertex="1" parent="1">
          <mxGeometry x="645" y="2031" width="340" height="30" as="geometry" />
        </mxCell>
        <mxCell id="yRr3s-q63M07JjMzN6V9-3" value="" style="rounded=0;whiteSpace=wrap;html=1;fillColor=#fff2cc;strokeColor=#d6b656;" vertex="1" parent="1">
          <mxGeometry x="625" y="2106" width="380" height="53" as="geometry" />
        </mxCell>
        <mxCell id="yRr3s-q63M07JjMzN6V9-4" value="&lt;span class=&quot;hljs-attr&quot;&gt;&lt;span class=&quot;hljs-attr&quot;&gt;MonthID&lt;/span&gt;&lt;span class=&quot;hljs-punctuation&quot;&gt;:&lt;/span&gt;&amp;nbsp;&lt;span class=&quot;hljs-number&quot;&gt;2,&amp;nbsp;&lt;/span&gt;ProductID&lt;/span&gt;&lt;span class=&quot;hljs-punctuation&quot;&gt;:&lt;/span&gt; &lt;span class=&quot;hljs-number&quot;&gt;2&lt;/span&gt;&lt;span class=&quot;hljs-punctuation&quot;&gt;,&amp;nbsp;&lt;/span&gt;&lt;span class=&quot;hljs-attr&quot;&gt;YearID&lt;/span&gt;&lt;span class=&quot;hljs-punctuation&quot;&gt;:&lt;/span&gt; &lt;span class=&quot;hljs-number&quot;&gt;2021&lt;/span&gt;&lt;span class=&quot;hljs-punctuation&quot;&gt;,&amp;nbsp;&lt;/span&gt;&lt;span class=&quot;hljs-attr&quot;&gt;QuantitySold&lt;/span&gt;&lt;span class=&quot;hljs-punctuation&quot;&gt;:&lt;/span&gt; &lt;span class=&quot;hljs-number&quot;&gt;25&lt;/span&gt;" style="text;html=1;align=center;verticalAlign=middle;whiteSpace=wrap;rounded=0;" vertex="1" parent="1">
          <mxGeometry x="644" y="2121" width="340" height="30" as="geometry" />
        </mxCell>
        <mxCell id="yRr3s-q63M07JjMzN6V9-5" value="" style="rounded=0;whiteSpace=wrap;html=1;fillColor=#fff2cc;strokeColor=#d6b656;" vertex="1" parent="1">
          <mxGeometry x="625" y="2196" width="380" height="70" as="geometry" />
        </mxCell>
        <mxCell id="yRr3s-q63M07JjMzN6V9-6" value="&lt;span class=&quot;hljs-attr&quot;&gt;&lt;span class=&quot;hljs-attr&quot;&gt;MonthID&lt;/span&gt;&lt;span class=&quot;hljs-punctuation&quot;&gt;:&lt;/span&gt;&amp;nbsp;&lt;span class=&quot;hljs-number&quot;&gt;3,&amp;nbsp;&lt;/span&gt;ProductID&lt;/span&gt;&lt;span class=&quot;hljs-punctuation&quot;&gt;:&lt;/span&gt; &lt;span class=&quot;hljs-number&quot;&gt;3&lt;/span&gt;&lt;span class=&quot;hljs-punctuation&quot;&gt;,&lt;/span&gt; &lt;span class=&quot;hljs-attr&quot;&gt;YearID&lt;/span&gt;&lt;span class=&quot;hljs-punctuation&quot;&gt;:&lt;/span&gt; &lt;span class=&quot;hljs-number&quot;&gt;2021&lt;/span&gt;&lt;span class=&quot;hljs-punctuation&quot;&gt;,&lt;/span&gt; &lt;span class=&quot;hljs-attr&quot;&gt;QuantitySold&lt;/span&gt;&lt;span class=&quot;hljs-punctuation&quot;&gt;:&lt;/span&gt; &lt;span class=&quot;hljs-number&quot;&gt;30&lt;/span&gt; &lt;span class=&quot;hljs-punctuation&quot;&gt;&lt;/span&gt;" style="text;html=1;align=center;verticalAlign=middle;whiteSpace=wrap;rounded=0;" vertex="1" parent="1">
          <mxGeometry x="645" y="2196" width="340" height="30" as="geometry" />
        </mxCell>
        <mxCell id="yRr3s-q63M07JjMzN6V9-7" value="" style="rounded=0;whiteSpace=wrap;html=1;fillColor=#fff2cc;strokeColor=#d6b656;" vertex="1" parent="1">
          <mxGeometry x="625" y="2286" width="380" height="60" as="geometry" />
        </mxCell>
        <mxCell id="yRr3s-q63M07JjMzN6V9-8" value="&lt;span class=&quot;hljs-attr&quot;&gt;&lt;span class=&quot;hljs-attr&quot;&gt;MonthID&lt;/span&gt;&lt;span class=&quot;hljs-punctuation&quot;&gt;:&lt;/span&gt;&amp;nbsp;&lt;span class=&quot;hljs-number&quot;&gt;4,&amp;nbsp;&lt;/span&gt;ProductID&lt;/span&gt;&lt;span class=&quot;hljs-punctuation&quot;&gt;:&lt;/span&gt; &lt;span class=&quot;hljs-number&quot;&gt;2&lt;/span&gt;&lt;span class=&quot;hljs-punctuation&quot;&gt;,&amp;nbsp;&lt;/span&gt;&lt;span class=&quot;hljs-attr&quot;&gt;YearID&lt;/span&gt;&lt;span class=&quot;hljs-punctuation&quot;&gt;:&lt;/span&gt; &lt;span class=&quot;hljs-number&quot;&gt;2022&lt;/span&gt;&lt;span class=&quot;hljs-punctuation&quot;&gt;,&lt;/span&gt; &lt;span class=&quot;hljs-attr&quot;&gt;QuantitySold&lt;/span&gt;&lt;span class=&quot;hljs-punctuation&quot;&gt;:&lt;/span&gt; &lt;span class=&quot;hljs-number&quot;&gt;22&lt;/span&gt;" style="text;html=1;align=center;verticalAlign=middle;whiteSpace=wrap;rounded=0;" vertex="1" parent="1">
          <mxGeometry x="645" y="2301" width="340" height="30" as="geometry" />
        </mxCell>
        <mxCell id="yRr3s-q63M07JjMzN6V9-9" value="" style="rounded=0;whiteSpace=wrap;html=1;fillColor=#fff2cc;strokeColor=#d6b656;" vertex="1" parent="1">
          <mxGeometry x="625" y="2376" width="380" height="60" as="geometry" />
        </mxCell>
        <mxCell id="yRr3s-q63M07JjMzN6V9-10" value="&lt;span class=&quot;hljs-attr&quot;&gt;&lt;span class=&quot;hljs-attr&quot;&gt;MonthID&lt;/span&gt;&lt;span class=&quot;hljs-punctuation&quot;&gt;:&lt;/span&gt;&amp;nbsp;&lt;span class=&quot;hljs-number&quot;&gt;5,&amp;nbsp;&lt;/span&gt;ProductID&lt;/span&gt;&lt;span class=&quot;hljs-punctuation&quot;&gt;:&lt;/span&gt; &lt;span class=&quot;hljs-number&quot;&gt;4&lt;/span&gt;&lt;span class=&quot;hljs-punctuation&quot;&gt;,&amp;nbsp;&lt;/span&gt;&lt;span class=&quot;hljs-attr&quot;&gt;YearID&lt;/span&gt;&lt;span class=&quot;hljs-punctuation&quot;&gt;:&lt;/span&gt; &lt;span class=&quot;hljs-number&quot;&gt;2022&lt;/span&gt;&lt;span class=&quot;hljs-punctuation&quot;&gt;,&lt;/span&gt; &lt;span class=&quot;hljs-attr&quot;&gt;QuantitySold&lt;/span&gt;&lt;span class=&quot;hljs-punctuation&quot;&gt;:&lt;/span&gt; &lt;span class=&quot;hljs-number&quot;&gt;14&lt;/span&gt;" style="text;html=1;align=center;verticalAlign=middle;whiteSpace=wrap;rounded=0;" vertex="1" parent="1">
          <mxGeometry x="645" y="2391" width="340" height="30" as="geometry" />
        </mxCell>
        <mxCell id="yRr3s-q63M07JjMzN6V9-11" value="" style="rounded=0;whiteSpace=wrap;html=1;fillColor=#fff2cc;strokeColor=#d6b656;" vertex="1" parent="1">
          <mxGeometry x="625" y="2466" width="380" height="60" as="geometry" />
        </mxCell>
        <mxCell id="yRr3s-q63M07JjMzN6V9-12" value="&lt;span class=&quot;hljs-attr&quot;&gt;&lt;span class=&quot;hljs-punctuation&quot;&gt;,&lt;/span&gt;&amp;nbsp;&lt;span class=&quot;hljs-attr&quot;&gt;MonthID&lt;/span&gt;&lt;span class=&quot;hljs-punctuation&quot;&gt;:&lt;/span&gt;&amp;nbsp;&lt;span class=&quot;hljs-number&quot;&gt;6,&amp;nbsp;&lt;/span&gt;ProductID&lt;/span&gt;&lt;span class=&quot;hljs-punctuation&quot;&gt;:&lt;/span&gt; &lt;span class=&quot;hljs-number&quot;&gt;5&lt;/span&gt;&lt;span class=&quot;hljs-punctuation&quot;&gt;,&amp;nbsp;&lt;/span&gt;&lt;span class=&quot;hljs-attr&quot;&gt;YearID&lt;/span&gt;&lt;span class=&quot;hljs-punctuation&quot;&gt;:&lt;/span&gt; &lt;span class=&quot;hljs-number&quot;&gt;2022&lt;/span&gt;&lt;span class=&quot;hljs-punctuation&quot;&gt;,&amp;nbsp;&lt;/span&gt;&lt;span class=&quot;hljs-attr&quot;&gt;QuantitySold&lt;/span&gt;&lt;span class=&quot;hljs-punctuation&quot;&gt;:&lt;/span&gt; &lt;span class=&quot;hljs-number&quot;&gt;28&lt;/span&gt;" style="text;html=1;align=center;verticalAlign=middle;whiteSpace=wrap;rounded=0;" vertex="1" parent="1">
          <mxGeometry x="645" y="2481" width="340" height="30" as="geometry" />
        </mxCell>
        <mxCell id="yRr3s-q63M07JjMzN6V9-13" value="" style="rounded=0;whiteSpace=wrap;html=1;fillColor=#f8cecc;strokeColor=#b85450;" vertex="1" parent="1">
          <mxGeometry x="1254" y="1996" width="200" height="60" as="geometry" />
        </mxCell>
        <mxCell id="yRr3s-q63M07JjMzN6V9-14" value="" style="rounded=0;whiteSpace=wrap;html=1;fillColor=#f8cecc;strokeColor=#b85450;" vertex="1" parent="1">
          <mxGeometry x="1253" y="2278" width="200" height="60" as="geometry" />
        </mxCell>
        <mxCell id="yRr3s-q63M07JjMzN6V9-15" value="P2-M4-Y2022,22" style="text;html=1;align=center;verticalAlign=middle;whiteSpace=wrap;rounded=0;fillColor=#f8cecc;strokeColor=#b85450;" vertex="1" parent="1">
          <mxGeometry x="1273" y="2293" width="150" height="30" as="geometry" />
        </mxCell>
        <mxCell id="yRr3s-q63M07JjMzN6V9-16" value="" style="rounded=0;whiteSpace=wrap;html=1;fillColor=#f8cecc;strokeColor=#b85450;" vertex="1" parent="1">
          <mxGeometry x="1255" y="2087" width="200" height="60" as="geometry" />
        </mxCell>
        <mxCell id="yRr3s-q63M07JjMzN6V9-17" value="P2-M2-Y2021,25" style="text;html=1;align=center;verticalAlign=middle;whiteSpace=wrap;rounded=0;fillColor=#f8cecc;strokeColor=#b85450;" vertex="1" parent="1">
          <mxGeometry x="1275" y="2102" width="150" height="30" as="geometry" />
        </mxCell>
        <mxCell id="yRr3s-q63M07JjMzN6V9-18" value="" style="rounded=0;whiteSpace=wrap;html=1;fillColor=#f8cecc;strokeColor=#b85450;" vertex="1" parent="1">
          <mxGeometry x="1253" y="2478" width="200" height="60" as="geometry" />
        </mxCell>
        <mxCell id="yRr3s-q63M07JjMzN6V9-19" value="P5-M6-Y2022,28" style="text;html=1;align=center;verticalAlign=middle;whiteSpace=wrap;rounded=0;fillColor=#f8cecc;strokeColor=#b85450;" vertex="1" parent="1">
          <mxGeometry x="1273" y="2493" width="150" height="30" as="geometry" />
        </mxCell>
        <mxCell id="yRr3s-q63M07JjMzN6V9-20" value="" style="rounded=0;whiteSpace=wrap;html=1;fillColor=#f8cecc;strokeColor=#b85450;" vertex="1" parent="1">
          <mxGeometry x="1255" y="2184" width="200" height="60" as="geometry" />
        </mxCell>
        <mxCell id="yRr3s-q63M07JjMzN6V9-21" value="P3-M3-Y2021,30&lt;div&gt;P5-M3-Y2022,18&lt;br&gt;&lt;/div&gt;" style="text;html=1;align=center;verticalAlign=middle;whiteSpace=wrap;rounded=0;fillColor=#f8cecc;strokeColor=#b85450;" vertex="1" parent="1">
          <mxGeometry x="1273" y="2196" width="166" height="38" as="geometry" />
        </mxCell>
        <mxCell id="yRr3s-q63M07JjMzN6V9-22" value="" style="rounded=0;whiteSpace=wrap;html=1;fillColor=#f8cecc;strokeColor=#b85450;" vertex="1" parent="1">
          <mxGeometry x="1253" y="2378" width="200" height="60" as="geometry" />
        </mxCell>
        <mxCell id="yRr3s-q63M07JjMzN6V9-23" value="P4-M5-Y2022,14" style="text;html=1;align=center;verticalAlign=middle;whiteSpace=wrap;rounded=0;fillColor=#f8cecc;strokeColor=#b85450;" vertex="1" parent="1">
          <mxGeometry x="1273" y="2393" width="150" height="30" as="geometry" />
        </mxCell>
        <mxCell id="yRr3s-q63M07JjMzN6V9-24" value="P3-M1-Y2021,20&lt;div&gt;P4-M1-Y2021,15&lt;br&gt;&lt;/div&gt;" style="text;html=1;align=center;verticalAlign=middle;whiteSpace=wrap;rounded=0;fillColor=#f8cecc;strokeColor=#b85450;" vertex="1" parent="1">
          <mxGeometry x="1264" y="2007" width="180" height="37" as="geometry" />
        </mxCell>
        <mxCell id="yRr3s-q63M07JjMzN6V9-25" value="" style="endArrow=classic;html=1;rounded=0;exitX=1.002;exitY=0.449;exitDx=0;exitDy=0;exitPerimeter=0;entryX=0;entryY=0.5;entryDx=0;entryDy=0;" edge="1" parent="1" target="yRr3s-q63M07JjMzN6V9-1">
          <mxGeometry width="50" height="50" relative="1" as="geometry">
            <mxPoint x="513.2" y="2228.7" as="sourcePoint" />
            <mxPoint x="1032" y="2384" as="targetPoint" />
          </mxGeometry>
        </mxCell>
        <mxCell id="yRr3s-q63M07JjMzN6V9-26" value="" style="endArrow=classic;html=1;rounded=0;entryX=0;entryY=0.5;entryDx=0;entryDy=0;" edge="1" parent="1" target="yRr3s-q63M07JjMzN6V9-3">
          <mxGeometry width="50" height="50" relative="1" as="geometry">
            <mxPoint x="512" y="2234" as="sourcePoint" />
            <mxPoint x="1092" y="2114" as="targetPoint" />
            <Array as="points">
              <mxPoint x="512" y="2234" />
            </Array>
          </mxGeometry>
        </mxCell>
        <mxCell id="yRr3s-q63M07JjMzN6V9-27" value="" style="endArrow=classic;html=1;rounded=0;entryX=0;entryY=0.5;entryDx=0;entryDy=0;exitX=1;exitY=0.467;exitDx=0;exitDy=0;exitPerimeter=0;" edge="1" parent="1" target="yRr3s-q63M07JjMzN6V9-5">
          <mxGeometry width="50" height="50" relative="1" as="geometry">
            <mxPoint x="512" y="2234.1" as="sourcePoint" />
            <mxPoint x="1082" y="2314" as="targetPoint" />
          </mxGeometry>
        </mxCell>
        <mxCell id="yRr3s-q63M07JjMzN6V9-28" value="" style="endArrow=classic;html=1;rounded=0;entryX=0;entryY=0.5;entryDx=0;entryDy=0;" edge="1" parent="1" target="yRr3s-q63M07JjMzN6V9-7">
          <mxGeometry width="50" height="50" relative="1" as="geometry">
            <mxPoint x="512" y="2234" as="sourcePoint" />
            <mxPoint x="612" y="2184" as="targetPoint" />
          </mxGeometry>
        </mxCell>
        <mxCell id="yRr3s-q63M07JjMzN6V9-29" value="" style="endArrow=classic;html=1;rounded=0;exitX=1.004;exitY=0.466;exitDx=0;exitDy=0;exitPerimeter=0;entryX=0;entryY=0.5;entryDx=0;entryDy=0;" edge="1" parent="1" target="yRr3s-q63M07JjMzN6V9-9">
          <mxGeometry width="50" height="50" relative="1" as="geometry">
            <mxPoint x="514.3999999999999" y="2233.8" as="sourcePoint" />
            <mxPoint x="612" y="2184" as="targetPoint" />
          </mxGeometry>
        </mxCell>
        <mxCell id="yRr3s-q63M07JjMzN6V9-30" value="" style="endArrow=classic;html=1;rounded=0;entryX=0;entryY=0.417;entryDx=0;entryDy=0;entryPerimeter=0;" edge="1" parent="1" target="yRr3s-q63M07JjMzN6V9-11">
          <mxGeometry width="50" height="50" relative="1" as="geometry">
            <mxPoint x="512" y="2234" as="sourcePoint" />
            <mxPoint x="612" y="2184" as="targetPoint" />
          </mxGeometry>
        </mxCell>
        <mxCell id="yRr3s-q63M07JjMzN6V9-31" value="Data Point" style="text;html=1;align=center;verticalAlign=middle;whiteSpace=wrap;rounded=0;" vertex="1" parent="1">
          <mxGeometry x="165" y="1930" width="60" height="30" as="geometry" />
        </mxCell>
        <mxCell id="yRr3s-q63M07JjMzN6V9-32" value="Splitting" style="text;html=1;align=center;verticalAlign=middle;whiteSpace=wrap;rounded=0;" vertex="1" parent="1">
          <mxGeometry x="799" y="1946" width="60" height="30" as="geometry" />
        </mxCell>
        <mxCell id="yRr3s-q63M07JjMzN6V9-33" value="Map" style="text;html=1;align=center;verticalAlign=middle;whiteSpace=wrap;rounded=0;" vertex="1" parent="1">
          <mxGeometry x="1342" y="1930" width="60" height="30" as="geometry" />
        </mxCell>
        <mxCell id="yRr3s-q63M07JjMzN6V9-34" value="" style="shape=image;verticalLabelPosition=bottom;labelBackgroundColor=default;verticalAlign=top;aspect=fixed;imageAspect=0;image=data:image/png,iVBORw0KGgoAAAANSUhEUgAAAoEAAAIyCAYAAAC0DRBjAAAAAXNSR0IArs4c6QAAAARnQU1BAACxjwv8YQUAAAAJcEhZcwAADsMAAA7DAcdvqGQAAI5iSURBVHhe7d09cuq++zbwy88yfgWN6KipTGMWkC2EArpT2AtIlQVAkc4uyMx/BSwAN1BR06EmG9FTyC+S/IKNId+QXJ+ZDOdgMLYsybcl2fKUUgpERERE9Kf8P/cNIiIiIvr9/h8ApJEHz/PgeTMk0v0IEREREf02RUtguFdQ6oClsD9ARERERL8Pu4OJiIiI/iAGgURERER/EINAIiIioj+IQSARERHRH8QgkIiIiOgPYhBIRERE9AcxCCQiIiL6gxgEEhEREf1BRRC4mXPGECIiIqK/wlNKKfdNIiIiIvrd2B1MRERE9AcxCCQiIiL6g3oEgRLJzIPneZhx4CARERHRU+s8JlAmM4zP71DrwF1ERERERE+mR0sg4E9G7ltERERE9IR6BYFERERE9Dt0DAJTfKyARSDcBURERET0hK4GgTKZwfN2eFEHLBkDEhEREf0KV4NAsTxAqRfsOJsIERER0a9xNQjUAvyLgW3KKJCIiIjoN+gYBBIRERHRb9IrCDyev9y3iIiIiOgJdQ4CxfIT8WnOGUOIiIiIfoHOM4YQERER0e/RuSWQiIiIiH4PBoFEREREf9DAIDBF5M2QyPzVXf5YaXTH8YkywcyLkOav7nIiIiKiX2RgEAgAUwgxwsSfQog8mPLgRXYYlUYevEHBlUQy8+Cstl4awfM8/TdLIIuZT7L3sr/KuvwJRkJg6k8wchZdI5NZZZ+JiIiIfqqBQeAIE999DwB8+Ke3smVQJng7+aj96CMEa6h9CPgxLoclitnuwj2UUtnfHpgbwaoQmBqr6CwLesero7uEiIiI6McaGAQKLA9rBMVrbor392kxw4hMt5guFsb36lvr9NseZlGkWxOtlrxXrI7AZu7BM7uezx+Vz3YTYK32CDd5sBpgfVhCFK+aTGbt6xVLHJTCJf62EJeIiIhosIFBYIvgBdPVB1Kk+Ngu8K+MEHXr2fyE+KJb5S6LLcZGV+rxNMGnUlDqghgrfKTZcwp9INwrKHXAMovS6j7b3QgT/wg+A5uIiIj+mscFgQjwLz5h7s2Bd6NLFgC+zjiG70UgJ4IF/M2uGC/oL4Ls8wLiSh9tn8/eQiwPUGaXMhEREdEv8MAgEBDLd4QI8WK2Av4oXzgffUz63gVCRERE9OQeGgTqcXfmWMHMaAK/GIunxwwew5fq5x4qReTNcYo/ixbJOlfHBLZJo4F3RBMRERE9xoODwAZiicN+itVY39Ax3i5wWV8LAQWW72H1xpA6aQRvvgGOK4zNAG6j5z7Wf3Ngr3BoiwC7MO8O3sytbUt3G/jxv28ObomIiIiu49zBDyORzF6Bz/ImFiIiIqKf4r9pCfwTvnDGAgEDQCIiIvqB2BJIRERE9AexJZCIiIjoD2IQSERERPQHDQwCU0TeDInMX93l30wmmHkR0vzVXd7EmMJu9p/vBBEREdHjDQwCAWAKIUaY+FMIkT1XL38MSzYVXBp9Y3DlTzASAlN/gl7PgA73UOoOj4whIiIiegIDg8ARJr79jlgecNGT/EJdffbfnQmBB8wcR0RERPTrDAwCBZaHNYLitUYaQT+3eQzP85A1DtothsUDnXW38myWP9DZQ5RKJMX/jS5nowu3fD/A+rCEKF7Nz/boHiYiIiL65QYGgR0Ea+xDwI8vUEphHeigbLxd4KIUlFK4LLZ4LaK7I6bv+n21D7GZvwKf+v/78IhtKnWwOD8hvmSfuyyAL+d3iYiIiKjR44PAGlKe9JRuWUveeHXE8ZxHcT4m5mA+v3zg8mjiZ58bYeIfsRpnLYtiiWVtM2QmWEPVzWFMRERE9Ef9J0EgUN6IUfz1Gj8osDzo773seFcvERERUV//SRAoxBTYvBmPlEmR9AniZIJZNrgwWCtc4ryFsAHHBBIRERFZ7h4EymSG8eoIbObFI2KCfzFg3hgSrHGJgdU4v7FjjrPo8WgWEWBxmhc3hoxXU+x7tSQSERER/W2cOxhZS+HupWeXNBEREdHzuntL4NPa6JZFji0kIiKiv4AtgURERER/EFsCiYiIiP6gwUGg53nuW0RERET0ww0OArv1JpdTv+Vj7tJI/zt//cmeaVv7+q59e/T6r0ojPT1h/uouvzOZzOBFafE6TIroLo84kkhmxtSLvegpHROZv7rLf6bvyt+9pNEd8kRHMsGsIb+befO++XUIfa7Ipwt99KbIZDYwX/y9MnWbJ9hXmWDmRUjzV3f5D5BG2RNV7lgwBgeBXVoCZfKK1VQ/HPqwLB8FMxUCo4mPqRDZAcgfGZMdgAecsItELAJSc25i5/cN1rb2Up/p6+dORmV77AoqRWRsZzUf3FZxuvtmptG9M9xNnHxgpV22bZVtrklzTAXEaAJ/Ksp5pa+wfqtyPNr5kxGEmMLPpsBJo+qx6RacBFjnM95UKqhq/m1en8DycIBRBHuaQogRJv4UnYuBVa7d/HQtP+eq+1hXRpu4+RvI8lSnNBuuElgF6/JJBL3qODu97r3dbn7twi53dplrruOu8TEZCYipj8mous/X11lf53ZRqUcaf+NebihTudq803b+0GrrHKs8tJctK42aC20Nc1/1cbW/rre9sm23MPcnSyO3Lvcqvw/An2AkBKb+BJ1LQVtdYtV/Zp5067SaNK/U9fq5yEpdEJ/m1W2/0eAgsFtLoK5gTKOJb/0fYonDJYaPEPsHTvEWrFUxl7EZkIZ7Y/aSPTA3MkhlWzvShWWOjbtAJnhdTbHPfm8/XRVzJ5sBs1J7TFevRcZJozlO2RzM6hLjNC8ziM7gY6yO5c900bRv+VzPeYa7S8G8E7E84BL7etYZ47E+5Tbr+aS3Y6NAjiao39N2X+fyOLnHo40QU/ethyrz7x7T1fhuFURphIas0kFopGE5O1Bbfq5jldGOdURt/k4jeHMY23TBYjvueUL7bhLJbA5YabDHtO0h+T3cll9T7E5xOQd8DKxes6CkpY5rJ2BvSoB1vr+64i5+Tx2WnS/mupDJDHPYM1ntp+cHTkt/a5nKAuN55czSev7Ig5Xq11JE8xPiS34cT5g3lYU0wrw45n2CEXdfA6wr5zC97eZ5+WbBuswvZj6xZirbA3MjkBUCN5WCXZl2SheCLM0lktcVpnmZ3U+N8pFiWxwnhX24MdI8CxDHK9Sfzt0yMpAaqMsqLrGv/Pjivl11iZWPUO2VUkrtVQgo5H+hflftw/K94rMXFftQvu8Xy/z4ovZh+f3863oVermmv2suzz6k4Meqeav19lW+V7FXIXxl7v4l9sv9UeZvVbel3FZ3PdXP1r/Xn50+xvbuQwU/VKFfprF9nGr20ziG+Tr3obmN7jbbx92P/682H7hp6G6zUm5+qrcPjbx1zT408lx/9n6X7+ntztIhNPJ38eG9ChGqffaZYvmVPKPTKCzSL9xfVOwbx+gSK99I23wdZrm5mjbX0qTxGHTJz7m2ZX01rMvczn1o7beZ19w8XR4iu2wUZcFJYz++GOuv1nGVfFzUDW56uey8UWzXJVa+WY9Z9ee145vVq80/ajN+yy2f1+vTDmrWYeZVs34p91EfU/u9Mh3Nc1Ml7S3OsSq2wylTzues41D3fp1LrPzWY52ppEc1b9ftU+U9dz2NZbb63cpx7qmsf/M6TrPKmbFtbcfRruuq+1W/rdfKVfa9znnXyA+VdGz5LafOUaru+6W6c8mtvqElMMXHClgEfaP7AGvzym8d6OZR8wp+D/uKZfFpRONj7F7yKxsfm12ny5XSaAL/+LirQKtl1Gql8mEvMi+fzC6DO18NNJJIt8dye48nTD51uh6WQDIzW3MW2I7Lrvyx2RIQOqutpVs7ivWpPabn/1XzQVdCYIoTZJcGiDZ5k/7bBJeOLVC32uCl2PfQmloRujv3M28tb2oJSbHb6C5QAMAGeMmOgZ10KaKxcZV6iQEpK60he3S90m+zwdzpmtH65efNvK5bpa8vnI92GQO65xWxPBRpU2m9NMrGJQZWHykglvjMW62d4TB1dVzwLwa2aZFG6W6D8H0JgQB64qWaLicAaTS2WoAwr0kjmWBmtfjc1AzVKP1Y4WgMtWiu4+5DJjOrVWqx1S3gwXqPEH62n7q86m60/LxhtMgYzJmtqt2sRotkY8um21q7B+YRUrdFSO0xuZbRbtZ2/mhhDpG50iJmDqu4rQW5FKx1PTebzYF9VremEcbbRdnCvNgWad16HBvrujYjTPwj7tSgDqQfWB2Nes3qVnZbQ3MSydum0lvaJngJsXlz8+htBgeBXsuYQN1FucOLGjIOyfB1xtE8ocw3wEkWCWGP1wvxkmUEIabW5+5DVwrdM9tzOeaVoTfGdmF0nfsLlPH8F87HEO/5MhFg4W+wSwEpT/Djfz0DJmd9CLB+cAIH6w6BpVjioBTUJ/A6KAC5LswzbWOFUa8MkPRJqNil8KX+GEiJkx/jX75QLLFeCnydsykfszKmi1jLDgfr9q7ZPO2yE3WMupPnNQLLQ1n5W92O384Yo+Z21xhl4+aTowiwwAofqQ7a3jZGPVYEoFn3tZd3ZUnIk4+4OJgBXsIjtqmTQl9nHMP3HnWxTvcu3XNFQHatLN3R1/mYBcgAIBAsWi72zbFZ1f5Qzcirl8UWY88eq2WOKatfxRd08SnL4gYnSKkvcDbzPHgPsGxLU7HE4V7nzB9PX9wcUdZFUp6A4ypLfw/j1RHHPEprO45Ndd1AYnlouOB2FBdZLfVhjfwCrks5KwTr7HxUM66xp8FBoGppCdSV1gt29zxxmmNCVFNryB18nXHsMzi0pyJTIw9uiyXWVcnX2TzNmC0VEvJkLLozc3xdr8z5k0iJk9XaNJAIsBh41VgXUPW/2ajKHC839Dxsja286/HXJ+oy79+Wn0WwGNBK33Dl3ymvOC3Vl/jurVuAwPI9xGaXQqZboPZCKguKLzH8za51HOV3kMlMt9w4dXFzHffdnFbvDt0S+tx1QZxd1Hbv2chbIPM/HczlLVifeDWC90doO3+0MBtJpERbUTTrMNm10LaovWCyxu7lF+r9j+N1DT0DfckEs/EWi4sTvFv1lL5IMKWRp3te+lbaaQTvFfi8Q30/OAhsawnUdKRfuSq9xWgC/5hdJQO6Uk4eUJjSCN78hPizLcCsu7upGxEsrMo73W3gLwKIytVsit3Gz7rSnat7mWJ7LFsJ2qTRoyqdESb+Bm95hG9skxBTHItureoJvqhIZIptUTCc9SFFdOt2ywSz8QrTvIuhQXvapIjMbiGZYmtUGDKZ1XQbNQteQiNN9Da+be5QAd1CCEzNsiQTRInEaOLjuPooAwuZoLWIpVH9nW0ZmUTWHXHl0IL2/Gwdl2zbirWkW+sCrf0YurIgy7oJRXfXWQFXcVLU22wqgvZHBTbBP8SnOcaradkqXveol+JCVUBMj7r7GXDqDcNoYtU71wOEa3dr6uXj83vlYry5jiu/17zebkYT3+gS08epbEl3GeXWrYz0uzWPenEChCLPVeszTV9glMcBkEmC1KhHxPKgg5e2nimZYHZTw0nb+aNF8ILwuEVZFLc4Fq1q9nnOrsPcNL/9nGgSYgpYQ2FSJMV/rh3HPlJE3hyn+LO11fVaPS+TGbzxGe9u663RMwYASHfYFL0FOq3eJpf+AWBWnspW8Myt+cYdJPgInW4MsQbO2jd8AE03hjiD6q1BuMaASmOAaHUgsTPY3vr9NtdvDLEHsdqDsJsGvrrbY6dbw6Bjd33WOlsGozZwB/8aC2oGyDbfGFLuv698c4C5eayzwfTlvtTto50PrH3NvlhJ6477XA5Mrueut/xodRB2F+5xal6fOeDcHjRdbFPDjSG56kBoZxC7VebK95sGX9faX7kxpPVGhLpjnX/NvTHG3KaOg63b1NYjObMM+ioMjXQ0v+f79s0k7g0YNdtv3xiiKnk7Vz127nFprzfK1ds3hpj5z/erv2HT66ytC5Sbf6q/3VjHufVzV24aO2lSuWEBKPJKZb+z9VjnJjev1ty4lL9f1mdOmXLzas1552qZunpjiFse3HqjfL9yA4j1PeccWfd+zXnO2hd7QeX4dFLzvaZ6su04VrYl/775mcZ0a3ZpvTGkLn4w0qWhjq0eC3N5dZ1uGay7MaSSBh0NnjvY8zxcW4VMZvpq8YaIlwaSCWavwOejus3/rBSRt8NL23g4erzB+VsimY1xfh/erXI/EoneqdYWiqeVRvB2Lzwf/DIymeEVn3ccPkL16uusNPKwe+lfjw3uDr4WAAKAWH4iPunB5kO7AKinrzNQdMPQ3UiJ04MGIlMPg/N33j1cf9ftf0E/L63PDRzPRcpTS7ctPStdFH9ppv0h9LOH9Y0kdrAnIU/dhoe5vqUlkIiIiIh+lm9pCSQiIiKin2VwEHj97mAiIiIi+mkGB4HdWgLLyZLzMTf5JNa1k1n/MM+0rX191749ev1X5ZOt1066fn8ymcGL0uJ1mBRRy2NYuqt7DEZXKSJvhkTmr+7yn+m78ncvaXSHPNFR3aNlikVl3rxvfh1CnyuiNH91l9+XTGYD88XfK1O3eYJ9lQlmXoQ0f3WX/wB6TGCfR2JdNzgI7NISaE5qbd45NBUCo4mvn7tlPgk8PwAPOGEXiVgEpGWAWv5VM4C1rb3UZ3rz6fP2PtrbY1dQxmwFzvOYzP3qO62Wu2/2uu6b4W7i5AMr7bJtq2xzXRpMBcRoAt+cIqmz7Lj0SAt/MoIQ02I6oDSqntS6BScB1vldyJUKqpp/m9cnsDwMueN0CiFGmPjXHqpcqh6XMr9bxzH7c9OnkEbtx7aFm78Bd31taTZcJbAK1uWdsb3qOLv833u73fzaXV3AVt3W7vvpYzISEFMfk1HNeq6ur77O7aKSXxt/4176l6lCS96p5Lma8lbkHacs6L/m9LPSqLHA1jH3VR9X++v3eX4k4OxTn/rGn2AkBKZ9Jopoq0usuMZMU7fersYc1bo+f+j4BfHpHtN5aoODwG4tgc48knVzGoolDpd8XtTHPXYjWOunvfuxMRWaM+OC2gNzI4NUtrUjXVjmqMwwJBO8mk+fN+ahNANmpfaYrl6LjJNG9mwF5bylKXbFHJr9ptVq2rdy1gid4e5SMO9ELA963tPQftK6NdPFZYHt2CiQA+cuTaMxtj3WUPsU/Acq8+8e05WeQ/W++k1jl7Pm+szmqy0fGlydGaD28QbSnTO8fu7XOrX5O42gZ9fLfzebhu3+iXZH0pmXNjvWlalPbnNrftUn1jFWtc+ddmbP6PQYH3cOaWPOXnOe5c7r604682YrpbCf3jozTRe3lakiwHanTUMZdIxrDsjXuTznWOeWYG3ts7rE8K3pQQ1pZM3X3D0Ycfc1wNqZezs/993lETPBuswvZj6x6ps9MDcC2StzJjdJd+V83EqffLNztjNntFlvyRTb4jyvsA83mBcJmQWI7rSUBbeMDOQ+OLCvLquwHsjZxnqIqPNAzPwhiLUPtcweauobD5KML9ZDLd2HXZbb0/Cw3ZoHWNqqD9GsV32YbeWhjsVvVbel3FZ3PdXPFpwHxPblPiy62N59WDzcuXyAZfPDot2Hc+brtB906e6Hfdz9+P9q84Gbhu42K+Xmp3rXHhatjPzr/mZfdQ/4LLc7S4fQyN/Fh/OHRTsPEb2SZ/T2hkX6hXvnwbbOw37zdTQ+DLbO/srDok3O8eicnu5xHJS/q+ml3zZ+w3qYs72dbp4uD5FdNoqy4KSxH5sPi67WcZV8XNQNbvl32Xmj2C43rdyH1FYSwpTVq80/mqlL02vbe4OaOrnuYdH2g5n1MbXfK7fLPDdV0t5S/xDoaw+Lto5D3ft1rj4sOlOTHrmrZaux3NYdy5KbRld/54qy/s3rOM0qZ8Y+th1Hu66rpk/9tl7Pp5fWh0W7jPzg1lttv+XUOUrVfb9Udy651Te0BKb4WN3y/KAAa/PKbx3UtAjAiJ4BLD6NaHyM3Yv+3CVumVi8yWgyYH7S66yWUauVyp5GzG7JMLsMmq8G0o8Vjjd1edYxp/oCcDxh8qnT9bCEM5fqAttx2ZXfba5Nk27tKNan9pie/1fNB10Jgak1P+0N0gjj8/t9rk472OCl2PfQmjoJujv3M28tb2oJSbHbGFObbYCX7BjYSefMw3mJASkrrSF7dL3Svy79cKZmA4CNfn5opRvFJJY4ZK3znufBG2+xaJ3SsU3DXKEd84qeU7ZMM7Mlwywblxh6+jCxxGfeal2Zh7laxwV6js2ilbOcHkpPv7ka16dVPgl9nncwr+nOk/kE92W9+FjHYntru7sGksnMapVabHULeLDeIyxaIXWvktUi3dCSHOgEtroQjaVli6TTe1NyW2v3wDxC6rYIqT0m1zLao+Tdk28TXOp63NIPrBDjX2VByRxWcWsLci5Y63puNpsD+RSfaaTnos7S+rLYFmndehwb67o2DXOJ3yr9wOponKetbmW3NTQnkbxtKr2lbYKX0JgycZjBQaDXMiZQdxXs8OLOqXerrzOO2JQng/nGmoPRHq9XPjhRiGn7XI030ZVC98z2PYqKceCGHfPK0BtjuzC6zq1ugi+cj2E5v6kxV6KUJ/juCf8qZ30IsB64H9cE65bAUiaYvU0Gp2Uf5UN0myqMevnDjj3dz1nmy6YHWkuJk29U9mKJ9VLo+WSNwEwXsZaSE6yLE20rmeBtYx7bakBVdqO4UkTFxd8FsTM/6/cyxqi53TVG2bj55CgCLJDN6ZylWVGPFemVdV97eVeWhDz5iIuD6czLnPs64xj2eQi1wPLgBq5dOUGT1d11H1/nozF/qjtvrsMcm1XXjYrsYsMIPMZO8GqOKatfxRd08SnL4gYnSKkv2DfzPHgPsGxLU7HE4V7nTFe+j5/Aa2Xcnw5GKnPSPpS+uDkagaeUJ+C4ytJfd20f8yit7Tg21XUDieWh4YLbUVxkdagPDfkFXK9yFqyzY1gzrrGnwUGgamkJ1JXWC3aVzDaAOSZENbWG3EExOftjFJka7kT09lWJPcm72VJRncRcJjN9BXWHNDHH1/XKnD+JlDhZrac9fZ1xdCojbOaDxo7VBVT9bzaqMse0Do1ZrbGVdzr+ta2AJhFg0XBFLpM3bIoKXmB5qGsl7arhyr9TXnFaqi9xj1GiXWUzmOxSyHTbkGY6OFOXGP5md/cWtkcIXsIHXIh35bR6d+iW0OeuC+LsorZ7z4YzDjIL5vIWrE+8GsH7f6iuvHVoBYRTh0n3JHSD2gsmZ6ywvlDvfxyva+gZ6EsmmI23WFyc4N3qTdQXCaY08nTPS99KO43gvQKfd6jvBweBbS2Bmo70K1eltxhN4B+zq2RAV8rJAwpTGsGbnxC3djnV3d3UjQgWVuWd7jbZYHn3ajbFbuNnXenO1b1MsT3mrQR6IOn4/F4bFKfRoyqdESb+Bm/52djYJiGmOBbdWtWAtahIZIptUTCc9SFFdOt2ywSz8QrTvIuhQWvaOAOm3ZtRZDKr6TZqFryERprobXzb3KECuoUQmJplSSaIEonRxMdx9VEGFjJBaxFLo+tdfTWtgIBEEhlpJ1NsjcrYPC5CTAEz2El32BgBW+sxrMiniXPusH51gtQiYNHDIUxF0G5dvN1R8A/xaY7xalqmmax51EtxoSogpmbrqFlvGEYTq96xLzDrDLhbM43spxfoMQpZ3TRgvYbRxDe6xPRxap6Orsxb9YFL3aNenAChaBSo1meavsAwW6llkiBFiig7dmJ50MFLW0AsE8zu2XAC6LrUzD9OeWtuBbTPc3Yd5qb57edEky7v5kVeiqT4z7Xj2EeKyJvjFH+2trpeq+dlMoM3PuPdbb01esaArN4qegt0Wr1NLv0DwKw8VY/VjdxBgo9gDr5tZA2ctW/4AJpuDHEG1VuDcI0BlcYA0epAYmewvfX7ba7fGGIPYrUHYTcNfHW3x063boOO7eUtg1EbuIN/jQU1A2Sbbwwp999XvjnA3NzebDB9mTR1+2jnAyvtsi9W0rrjPpcDk6+zBxa3D6Bu0nhjQWV95oBze9B0sa8NN4bkqgOhnUHsVr4p328afF2rcYB5rnn73GNmfsY9Lna6uQPxr2xjndp6JGeWQV+FoZGO5vd8376ZxL0Bo9j+Mk/bN4aoSt7OVY9dNb3a6o1y9faNIWY6+n71N2x6nbV1QcbNz8U2uXWSua1u/dyVm8ZOmlRuWACKvFnZ72w91rnJyRN2PrPzRFmfOWWq4QaSXmXq6o0hzm+4x7thH9z8Yx76uvymVc9z1nrsBZXj00nN99x8lf9M23GsbEv+ffMzTenW4hK33RhSFz8Y6dJQx1bzmrm8uk63DN7zxpBvmTtYJjPdSnVDxEsDyQSzV+CzpoWQhkgReTu8dBkPR48zOH9LJLMxzu/Du1XuRyLRO9XaQvG00gje7oXng19GJjO84vMuw0eozX3rrMHdwdcCQAAQy0/EJz3YfGgXAPX0dQbM57LRfUiJ04MGIlMPg/N33j2sx33+hPpJPy+tzw0cz0XKU0u3LT0rXRR/aab9IfSzh/WNJPcIAAHgW1oCiYiIiOhn+ZaWQCIiIiL6WQYHgURERET0fAYGgcaDU1tuoSYiIiKin2VgEJg9Ff4uD20kIiIiou8yMAgkIiIiomfEIJCIiIjoD2IQSERERPQHMQgkIiIi+oMYBBIRERH9QQwCiYiIiP4gBoFEREREfxCDQCIiIqI/aGAQmM0YMt+4C4iIiIjoB/OUUsp9k4iIiIh+t4EtgURERET0jBgEEhEREf1BV4NAmczgeR68WQLpLiQiIiKip9R5TGAaeXibXHBYCncRERERET2Zqy2BudHEd98iIiIioifVOQgkIiIiot+jcxAoggWw+kDqLiAiIiKip9M5CIRY4qBesPM8zBLeIkJERET0zLoHgTLBzNvhRSneHEJERET05DoHgTLdAvE/BNa7etq4iH3ERERERE+lcxBYK91h48f4Z0eGRERERPTDdQ4Cv85H9y1IeYK/CMDOYSIiIqLncjUIzGcMmZ9ifDpjAb/OwCJgCEhERET0bDrPGEJEREREv8fVlkAiIiIi+n0YBBIRERH9QT2CQIlk5sHjw6KJiIiInl7nMYEymWF8foda83kwRERERM+uR0sg4E9G7ltERERE9IR6BYFERERE9Dt0DAJTfKz4TEAiIiKi3+JqEKgfFr3DizrAeVY0ERERET2pq0GgWB6g1At23gy8KZiIiIjod7gaBGoB/sXANmUUSERERPQbdAwCiYiIiOg36RUEHs9f7ltERERE9IQ6B4Fi+Yn4NOeMIURERES/QOcZQ4iIiIjo9+jcEkhEREREvweDQCIiIqI/aGAQmCLyZkhk/uouf6w0uuP4RJlg5kVI81d3OREREdEvMjAIBIAphBhh4k8hRB5MefAiO4xKIw/eoOBKIpl5cFZbL43geZ7+myWQxcwn2XvZX2Vd/gQjITD1Jxg5ixqZv8WbZoiIiOhJDAwCR5j47nsA4MM/vZUtgzLB28lH7UcfIVhD7UPAj3E5LFHMdhfuoZTK/vbA3AhWhcDUWEVX6e6E+JKt8xIDq9dvbxElIiIi6mtgECiwPKwRFK+5Kd7fp8UMIzLdYrpYGN+rb63Tb3uYRZFuTbRa8l6xOgKbuQfP7Ho+f1Q+202Atdoj3OTBaoD1YQlRvGoymbWuN1gbcyqLAItvi3SJiIiIbjcwCGwRvGC6+kCKFB/bBf6VEaLuMp6XLWiXxRZjo2/2eJrgUykodUGMFT7S7DmFPhDuFZQqA6+6z3Y3wsQ/4m7PwE4/sDpm3eJEREREP9jjgkAE+BefMPfmwLvRJQsAX2ccw/cikBPBAv5mV4wX9BdB9nkBcaWPts9nbyGWByizS7lJEdiaLaJEREREP9MDg0BALN8RIsTLj42KvnA++ph0vgukgUwwG2+xuBhdw0REREQ/2EODQD3urqZlbDSBX4zF02MGj+FL9XMPlSLy5jjFn62B27UxgTKZwRuf8W50URfSaOAd0URERESP8eAgsIFY4rCfYjXWN3SMtwtc1tdCQIHle1i9MaROGsGbb4DjCmMzgNvouY/13xzYKxwqkVsfEun2CGCDufn4mWx8Y7rbwI//fXNwS0RERHQd5w5+GIlk9gp81rQQEhEREf3H/puWwD/hC2csEDAAJCIioh+ILYFEREREfxBbAomIiIj+IAaBRERERH/QwCAwReTNkMj81V3+zWSCmRchzV/d5U2MKexm//lOEBERET3ewCAQAKYQYoSJr6dLk8ms+qiU6BuDK3+CkRCY+hP0egZ0uIdSQx8ZQ0RERPQcBgaBI0x8+x2xPOCiJ/mFuvrsvzsTAg+YOY6IiIjo1xkYBAosD2sExWuNNIJ+bvMYnuchaxy0WwyLBzrrbuXZrHzwcpRKJMX/jS5nowu3fD/A+rCEKF7Nz/boHiYiIiL65QYGgR0Ea+xDwI8vUEphHeigbLxd4KIUlFK4LLZ4LaK7I6bv+n21D7GZvwKf+v/78IhtKnWwOD8hvmSfuyyAL+d3iYiIiKjR44PAGlKe9JRuWUveeHXE8ZxHcT4m5mA+v3zg8mjiZ58bYeIfsRpnLYtiiWVtM2QmWEPVzWFMRERE9Ef9J0EgUN6IUfz1Gj8osDzo773seFcvERERUV//SRAoxBTYvBmPlEmR9AniZIJZNrgwWCtc4ryFsAHHBBIRERFZ7h4EymSG8eoIbObFI2KCfzFg3hgSrHGJgdU4v7FjjrPo8WgWEWBxmhc3hoxXU+x7tSQSERER/W2cOxhZS+HupWeXNBEREdHzuntL4NPa6JZFji0kIiKiv4AtgURERER/EFsCiYiIiP6gwUGg53nuW0RERET0ww0OArv1JpdTv+Vj7tJI/zt//cmeaVv7+q59e/T6r0ojPT1h/uouvzOZzOBFafE6TIroLo84kkhmxtSLvegpHROZv7rLf6bvyt+9pNEd8kRHMsGsIb+befO++XUIfa7Ipwt99KbIZDYwX/y9MnWbJ9hXmWDmRUjzV3f5D5BG2RNV7lgwBgeBXVoCZfKK1VQ/HPqwLB8FMxUCo4mPqRDZAcgfGZMdgAecsItELAJSc25i5/cN1rb2Up/p6+dORmV77AoqRWRsp5kPzP1yl13j7pu7rntmuJs4+cBKu2zbKttck+aYCojRBP5UlPNKX2H9Vs909ScjCDGFn02Bk0bV73cLTgKs8xlvKhVUNf82r09geTjAKII9TSHECBN/it7FoEhLc9ub83OFNVd4tXy2cfM34K6vLc2GqwRWwbp8EkGvOs5Or3tvt5tfu7DLnVnmqtvafT99TEYCYupjMqpZz9X11de5XVTqkcbfuJcBZao279x2/uhTvqw0ai20LnNf9bbYX9fbfpc8be5PlkZuXV5JAwDwJxgJgak/QedS0FaXWHGNmSfdersmzSt1vX4uslIXxKd5ddtvNDgI7NYSqCsY02jiW/+HWOJwieEjxP6BU7wFa1XMZWwGpOHemL1kD8yNDFLZ1o50YZlj4y6QCV5XU+yz39tPV8XcyWbArNQe09VrkXHSaI5TNgezusQ4zfMMIiERF3Mx28vaNe1bPtdznuHuUjDvRCwPuMS+nnXGeKxPuc16Punt2CiQownq97SNRLotj5Oey7pbugoxdd96qDL/7jFdje9WQZRGaMgq3aQRxltYx6A5P7vsucIv8QnzjjtYm7/TCN4c5XFVFyy2454ntO8mkczmgFlPqT2mbQ/J7+G2/JpidyrrnUsMrF7NoMQv53dXCuqw7HDxJWBvSoC1Uf7gG/Vcp/V1J5MZ5rBnstpPzw+clv7WMpUFc/PKmeXG80eP8pVGmBfHvE8w4u5rgLVT5vNtN8/LNwvWZX4x84k1U9kemBuBrBC4qRTsyrRTuhBkaS6RvK4wzcvsflqWD5liWxwnhX24MdI8CxDHKxytX8q5ZWQgNVCXVVxiX/nxxX276hIrH6HaK6WU2qsQUMj/Qv2u2ofle8VnLyr2oXzfL5b58UXtw/L7+df1KvRyTX/XXJ59SMGPVfNW6+2rfK9ir0L4ytz9S+yX+6PM36puS7mt7nqqny2WxP6VbW9np4+xvftQwQ9V6JdpbB+nmv00jmG+zn1obre7H/Zx9+P/q80Hbhq626yUm5/q7UMjb121V+GV9bWx97t8T293lg6hkb+LD+e/qz9TLL+SZ3QahUX6hfuLin3jGF1i5RtpWxaxano32odGOWxwiZXvx+pSKd/d8nOlLHY4rs0afsdc5z609tvMa26eLg+RXTaKsuCksR9fjPVX67hKPi723U0vl503iu3K0z7/mFV/Xju+Wb3a/KM267eube8N3Hzg5FWzfin3UR9T+71yu8xzUyXtLc6xKrbDKVPO56zjUPd+nUus/C5pV0mPat7udP5w19NSvtw0cuvhvsr6165brXJmbFvbcbTruup+1W+rmy5V/c6nRn6opGPLbzl1jlJ13y/VnUtu9Q0tgSk+VsAi6BvdB1ibV37rQDePmlfwe9hXLItPIxofY/eSX9n42Ow6Xa6URhP4x8ddBVoto1YrlQ97kXn5ZHYZ1FwNZM3S4/P7Ha+SJdLtsdze4wmTT52uhyWQzMyrywW247Irf2y2dobOamvp1o5ifWqP6fl/1XzQlRCY4gR5p0ZMmbxh06eb4AYbvBT7HlpTK0J3537mreVNLSEpdhvdBQoA2AAv2TGwky5FNDauUi8xIGWlNWSPrlf6TVJE4zPea7f1Sn42mV34N16xa184H+0yBnTPK2J5KNKm0npplI1LDKw+UkAs8Zm3WjvDYerquOBfDGzTojUt3W0Qvi8hEEBPvFTT5QQgjcZWCxDmNd2hMsHMavG5qRmqUfqxwtEaanE0ZoVqauW9nUxmVqvUYqtbwIP1HmHRCql7lXQ3Wn7eMFpkDObMVtVuVqNF0um9KbmttXtgHiF1W4TUHpNrGe1mN54/epQvc1jFbS3IpWCt67nZbA7ssx7ANMJ4uyhbmBfbIq1bj2NjXddmhIl/xJ0a1IH0A6ujkc7W+cJtDc1JJG+bSm9pm+AlxObNzaO3GRwEei1jAnUf/A4vasg4JMPXGUdsMM/70ecb4CSLhLDH64V4yTKCEFPrc/ehK4Xume0bBGtdOF52gyvdY14ZemNsF0bXub9AGc9/4XwM8Z4vEwEW/ga7FJDyBD/+17Nb31kfAqwfnMDBumNgmQe1tcHM/YR5pm2sMOpt5vnJVp+Eil0KX+qPgZQ4+TH+5QvFEuulwNc5m/IxK2O6iLWUnGBdnGirJJLZGyaXpuXPyBhX5XbXGGXj5pOjCLDACh+pDtreNkY9VgSgWfe1l3dlSciTj7g4mAFewiO2qXPcvs44hu896mKB5cENXOsVAVmR8Zygyeruuo+v8zELkAFAIFi0XOybY7NqulEBXQYORuAxdoJXc0xZ/Sq+oItPWRY3OEFKHXBt5nnwHmDZlqZiicO9zpk/nr64OaKsi6Q8AcdVlv4exqsjjnmU1nYcm+q6gcTy0HDB7SgusvrVd/kFXJdyVgjWUJ/Aa924xp4GB4GqpSVQV1ov2N04SLeWOSZENbWG3MHXGccHtvoUmRp5cFsssa5Kvs7macZsqZCQJ2ORKXhB2KFVo405vq5X5vxJpMTJuvq9UTGGrF/hrlMXUPW/2ajKHNPaJaZtY42tHHT8v3A+Gq1B41V2EZefWDvmZ8C+iJMSbR9t13Dl3ymvOC3Vl/iGcabXCCzfQ2x2KWS6BWovpHRwpi4x/M1u0MXePchkpltuWuri4CV8wIV4V06rd4duCX3uuiDOLmq792w44yCzYC5vwfrEqxG8P8KN548e5cusw2Rroe2m9oLJGruXX6j3P47XNfQM9CUTzMZbLC5O8G71JuqLBFMaebrnpW+lnUbwXoHPO9T3g4PAtpZATUf6lavSW4wm8I/ZVTKgK+XkAYUpjeDNT4g/myu1vEXglrIsgoVVeae7DfxFAFG5mk2x2/hZV7pzdS9TbI9ZK4FMMDM3JN1hY5zQ0uhRlc4IE3+DtzzCN7ZJiCmORbdW9QRfVCQyxbYoGM76kCK6dbtlgtl4hWnexdDgWtqkkQfvbYJLTQAok1lNt1Gz4CU00kRv49vmDhXQLYTA1CxLMkGUSIwmPo6rjzKwkAlai1gatbQ6261BOmjKb/xqyc/ucQleEB63KD+6xdG46r92DG1ZkGXdhKK766yAqzgp6uEQpiJoty7e7ij4h/g0x3g1LVvF6x71UlyoCojpUXc/A069YRhNrHrHDhDqXLtbUy+vHX6SRvbTC/QYhewz19bbzWjiG11i+jiVLemuspzVBy51j3pxAoSiUaBan2n6AqM8DoBMEqRIEWXHTiwPOnhpC4hlgtlNDSc3nj9ay5d9nrPrMDfNbz8nmoSYAtZQmBRJ8Z9rx7GPFJE3xyn+bG11vVbPy2QGb3zGu9t6a/SMAdl5uegt0Gn1Nrn0DwCz8lS2gg/kDhJ8hE43hlgDZ+0bPoCmG0OcQfXWIFxjQKUxQLQ6kNgZbG/9fhs9ALhtcKY9iNUehN008NXdHjvdGgYdV/bBHajcMBi1gTv411hQM0DW3Cb7d8r995VvDjA3j3U2mL7cl7p9tPOBlXbZFytp3XGfy4HJdZzB4NlfbZ7rqPHGgsr6zAHn9qDpYl8bbgzJVQdCO4PYrTJXvt80+LrWvsONITm3XNYe62yJe1yscu+u48o21qmtR3JmefJVGBrpaH7P9+2bSdwbMIrtL/fTvjFEVfJ2rnrs3OPSXm+Uq7dvDDHzn+9Xf8Om11lbFyg3/zi/7S7reONBKzeNnTSp3LAAFHmlst/Zeqxzk5Mn7Lxv54myPnPKlFtn1Jx3rpapqzeGVOsltx6pSxP3e9ahby1fNWUz/6xbRivnhw5qvtdUT7Ydx8q25N83P9OYbs3abwxxz71OujTUsdW8Zi6vrtMtg/e8MWTw3MGe5+HaKmQy01eLN0S8NJBMMHsFPt0rdRooReTt8FLTQkjfaHD+lkhmY5zfh3er3I9EoneqtYXiaaURvN0Lzwe/jExmeMXngOEj1M1966zB3cHXAkAAEMtPxCc92HxoFwD19HUGFsGNJ0hqJCVODxqITD0Mzt9597Aet/gT6if9vLQ+N3A8FylPLd229Kx0UfylmfaH0M8e1jeS3CMABIBvaQkkIiIiop/lW1oCiYiIiOhnGRwEEhEREdHzGRgEGg9ObbmFmoiIiIh+loFBYPYcsLs8tJGIiIiIvsvAIJCIiIiInhGDQCIiIqI/iEEgERER0R/EIJCIiIjoD2IQSERERPQHMQgkIiIi+oMYBBIRERH9QQwCiYiIiP6ggUFgNmPIfOMuICIiIqIfzFNKKfdNIiIiIvrdBrYEEhEREdEzYhBIRERE9AddDQJlMoPnefBmCaS7kIiIiIieUucxgWnk4W1ywWEp3EVERERE9GSutgTmRhPffYuIiIiInlTnIJCIiIiIfo/OQaAIFsDqA6m7gIiIiIieTucgEGKJg3rBzvMwS3iLCBEREdEz6x4EygQzb4cXpXhzCBEREdGT6xwEynQLxP8QWO/qaeMi9hETERERPZXOQWCtdIeNH+OfHRkSERER0Q/XOQj8Oh/dtyDlCf4iADuHiYiIiJ7L1SAwnzFkforx6YwF/DoDi4AhIBEREdGz6TxjCBERERH9HldbAomIiIjo92EQSERERPQH9QgCJZKZB48PiyYiIiJ6ep3HBMpkhvH5HWrN58EQERERPbseLYGAPxm5bxERERHRE+oVBBIRERHR79AxCEzxseIzAYmIiIh+i6tBoH5Y9A4v6gDnWdFERERE9KSuBoFieYBSL9h5M/CmYCIiIqLf4WoQqAX4FwPblFEgERER0W/QMQgkIiIiot+kVxB4PH+5bxERERHRE+ocBIrlJ+LTnDOGEBEREf0CnWcMISIiIqLfo3NLIBERERH9HgwCiYiIiP6ggUFgisibIZH5q7v8sdLojuMTZYKZFyHNX93lRERERL/IwCAQAKYQYoSJP4UQeTDlwYvsMCqNPHiDgiuJZObBWW29NILnefpvlkAWM59k72V/lXX5E4yEwNSfYOQsamT+Vs1+ExEREf1EA4PAESa++x4A+PBPb2XLoEzwdvJR+9FHCNZQ+xDwY1wOSxSz3YV7KKWyvz0wN4I2ITA1VtGVlEB8ydd5QXyaV4NLIiIioh9mYBAosDysERSvuSne36fFDCMy3WK6WBjfq2+t0297mEWRbk20WvJesToCm7kHz+x6Pn9UPttNgLXaI9zkwWqA9WEJUbxqMpm1rlcs1+WcyjLF9uhj0rkZkYiIiOi/MTAIbBG8YLr6QIoUH9sF/pURou4ynp+KFrTLYoux0Xx2PE3wmbesYYWPNHtOoQ+EewWlDkXgVffZ7kaY+EcMfwZ2isjz4I3PeDe2jYiIiOinelwQiAD/4hPm3hx4N7pkAeDrjGP4XgRLIljA3+yK8YL+Isg+LyCu9NH2+ewtxPIAZXYp1wqwVgpKvWBXN9aQiIiI6Id5YBAIiOU7QoR4MVsBf5QvnO/afRvgJQROsqnzmIiIiOhneGgQqFvIzLGCmdEEfjEWT48ZPIYv1c89VIrIm+MUf7Z237aPCZRIZuYdzyl2G2AqshWm0cA7oomIiIge48FBYAOxxGE/xWqsb+gYbxe4rK+FgALL97B6Y0idNII33wDHFcZmALfRcx/rvzmwVzi0RYBXCQSLE+bGOk/xBfmupLsN/PjfNwe3RERERNdx7uCHkUhmr8AnbxQhIiKin+e/aQn8E75wxgIBA0AiIiL6gdgSSERERPQHsSWQiIiI6A9iEEhERET0Bw0MAlNE3gyJzF/d5d9MJph5EdL81V3exJjCbvaf7wQRERHR4w0MAgFgCiFGmPhTCJE9Vy9/ZEo2dUYafWNw5U8wEgJTf4Jez4AO91Bq6CNjiIiIiJ7DwCBwhIlvvyOWB1z0JL9QV5/9d2dC4AEzxxERERH9OgODQIHlYY2geK2RRtDPbR7DM+bVtVoMiwc6627l2Sx/+LKHKJVIiv8bXc5GF275foD1YQlRvJqf7dE9TERERPTLDQwCOwjW2IeAH1+glNKzaaSRniVEKSilcFls8VpEd0dM3/X7ah9iM38FPvX/9+ER21TqYHF+QnzJPndZAF/O7xIRERFRo8cHgTWkPOkp3bKWvPHqiOM5j+J8TMzBfH75wOXRxM8+N8LEP2I1zloWxRLL2mbITLCGqpvDmIiIiOiP+k+CQKC8EaP46zV+UGB50N972fGuXiIiIqK+/pMgUIgpsHkzHimTIukTxMkEs2xwYbBWuMR5C2EDjgkkIiIistw9CJTJDOPVEdjMi0fEBP9iwLwxJFjjEgOrcX5jxxxn0ePRLCLA4jQvbgwZr6bY92pJJCIiIvrbOHcwspbC3UvPLmkiIiKi53X3lsCntdEtixxbSERERH8BWwKJiIiI/iC2BBIRERH9QYODQM/z3LeIiIiI6IcbHAR2600up37Lx9ylkf53/vqTPdO29vVd+/bo9V+VRnp6wvzVXX5nMpnBi9LidZgU0V0ecSSRzIypF3vRUzomMn91l/9M35W/e0mjO+SJjmSCWUN+N/PmffPrEPpckU8X+uhNkclsYL74e2XqNk+wrzLBzIuQ5q/u8h8gjbInqtyxYAwOAru0BMrkFaupfjj0YVk+CmYqBEYTH1MhsgOQPzImOwAPOGEXiVgEpObcxM7vG6xt7aU+09fPnYzK9tgVVIrI2M76fKA/06dic/fNTKN7Z7ibOPnASrts2yrbXJPmmAqI0QT+VJTzSl9h/VbPdPUnIwgxhZ9NgZNG1WPWLTgJsM5nvKlUUNX827w+geXhAKMI9jSFECNM/Ck6FwOrXNvHzE1brzFPZ3mg+Fy1fLZx8zfgrq8tzYarBFbBunwSQa86zi7/995uN7924ZY7czeb67hrfExGAmLqYzKq7vP1ddbXuV24+9P8G/dyQ5nKNeWdunOpezzc49WjfFlp1Fhg65j7qo+r/XVdl90lT5v7k6VR6/7n/AlGQmDqT9C5FLTVJdaxMPOkW2/XpHmlrtfPRVbqgvg0r277jQYHgd1aAnUFYxpNfOv/EEscLjF8hNg/cIq3YK2KuYzNgDTcG7OX7IG5kUEq29qRLixzbNwFMsHraop99nv76aqYO9kMmJXaY7p6LTJOGs1xyuZgVpcYp7mbcSSS2RtOPTa3ad/yuZ7zDHeXgnknYnnAJfb1rDPGY33KbdbzSW/HRoEcTVC/p+2+zuVxco9HGyGm7lsPVebfPaar8d0qiNIIDVmlg9BIQ2d2IGfmoPqnNNlzhV/iE+Ydd7A2f6cRvDmMbbpgsR33PKF9N4lkNgfMekrtMW17SH4Pt+VXCYm4mAPeqpNa6rh2AvamBFjn69cVd/l7h2Xni7kuZDLDHHZ+3E/PD5yW/tYylQXG88qZRQcO4y0WWVmpTJdaW956lK80wvyUH4M+wYi7rwHWzjksP/eZ5+WbBesyv5j5xNr/PTA3AlkhcEspSHdl2qlLDBTnCInkdYVpXmb3U6xes6BdptgW53mFfbgx0jwLEMcrHK1fyrllZCA1UJdVXGJf+fHFfbvqEisfodorpZTaqxBQyP9C/a7ah+V7xWcvKvahfN8vlvnxRe3D8vv51/Uq9HJNf9dcnn1IwY9V81br7at8r2KvQvjK3P1L7Jf7o8zfqm5Lua3ueuo/G+7d/evP/X6xvftQwQ9V6JdpbB+nmv00jmG+znw7s085+2Efdz/+v9p84Kahu81Kufmp3j408tY1+9DIc/3Z+12+p7c7S4fQyN/Fh/cqRKj22WeK5VfyjE6jsEi/cH9RsW8co0usfCNt83WY5eZq2lxLk5Zj4B7DRm5ZbFnnddX00m8b69yH1naZ2+nm6fIQ2WWjKAtOGvvxxVh/tY6r5ONi393y77LzRrFdl1j5ZtpZ9ee145vVq80/arnEfnGcKsfWPYa3qFmHmVfN+qXcR31M7ffKdDTPTZW0tzjHqtgOp0w5n7OOQ937dS6x8luPdaYhPZr2oXJMcu56WsqXu/7GdXZU1r95HadZ5czYtrbjaNd11f2q39Zr5crO19cZ+aGSji2/5dQ5StV9v1R3LrnVN7QEpvhYAYugb3QfYG1e+a0DfZVjXsHvYV+xLD6NaHyM3Ut+ZeNjs+t0uVIaTeAfH3cVaLWMWq1UPuxF5uWT2WVgXw3IZIa3yaWhJWUIiXR7LLf3eMLkU6frYQkkM7N1coHtuOzKH5stAaGz2lq6taNYn9pjev5fNR90JQSmOEF2aYBokzfpv01wca+s72yDl2LfQ2tqReju3M+8tbypJSTFbqO7QAEAG+AlOwZ20qWIxsZV6iUGpKy0huzR9Uq/zQZzp2umXFTO/NPa2mx24d94xa594Xy0yxjQPa+I5aFIm0prvFE2LjGw+kgBscRn3mrtDIepq+OCfzGwTYs0SncbhO9LCATQEy/Vp1Uaja0eBMxrukNlgpnV4nNTM1RV1h02Pr9bebK5jrsPmcysVqnFVreAB+s9QvjZfuryqrvR8vOG0SJjMGe2quRTs0WysWXTba3dA/MIqdsipPaYXMtoN5GQJ+CY70PdfjSVtx7lyxxWcVsLcilY63puNpsD+6xuTSOMt4uixfey2BZp3XocG+u6NiNM/CPu1KAOpB9YHY3ztNWt7LaG5iSSt02lt7RN8BJi8+bm0dsMDgK9ljGBug9+hxc1ZByS4euMo3lCmW+AkywSwh6vF+IlywhCTK3P3YeuFLpntgdKI4zP7/dpRs+UFckY24XRde4vUMbzXzgfQ7zny0SAhb/BLgWkPMGP//UMmJz1IcD6wQkcrDsElmKJg1JQn8DrjWONugrzTNtYYdTbzPOxJfokVOxS+FJ/DKTEyY/xL18ollgvBb7O2ZSPWRnTRaxlh4N1tcvJlKdddqKOUZ483YCq7Eb5yYwxam53jVE2bj45igALrPCR6qDtbWPUY0V6Zd3XXt6VJSFPPuLiYAZ4CY/Ypk5ifp1xDN971MUCy4MbuNYI1nq7Xnb1Y5se5Ot8zAJkABAIFi0X++bYrLpuVNh59bLYYuzZY7XMMWX1q/iCLj5lWdzgBCn1BftmngdeAZZtaSqWONx8zsyD32qw+jPLm764OaKsi6SOZLP09zBeHXHMo7S249hU1w0kloeGC25HcZHVUh/WyC/grpYzU7DOzkc14xp7GhwEqpaWQJ3pXrC754nTHBOimlpD7uDrjGOfwaE9FZkaeXBbLLGuSr7O5mnGbKnQV33IC41z4j6uxpXWgj7M8XW9MudPIiVOVuvpQCLAYuBVY11A1f9moypzTOu1mPYaa2zlXY+/PlFbeb9YdCVtzYs4KZFl/Rs0XPl3yitOS/UlvnvrFiCwfA+x2aWQ6RaovZDSwZm6xPA3u28Luq4KXhAadVRzHffdnFbvDt0S+tx1QZxd1Hbv2bCDMJUFc3kL1idejeD9Eey8PZp0LG89ypdZh8n8JDRA7QWTM3ZRX6j3P47XNfQM9FWMxXSCd6s3UV8kmNLI0z0vfSvtNIL3Cnzeob4fHAR6LS2Bmo70K1eltxhN4B+zq2RAV8rJAwpTGsGbnxB/tgWYdXc3dSOChVV5p7sN/EUAUbmaTbHb+FlXunN1L1Nsj7qVwLrCyyoo88aXNHpUpTPCxN/gLQ82zW0SUxyLbq0yYM0VFYlMsS0KhrM+pIhu3W6ZYDZeYZp3MTRoT5sUkdmdIlNsjQpDJrNqd0uL4CU00kRv49vmDhXQLYTA1CxLMkGUSH3SWH2UgYVM0FrE0qi19UcmkXVHXDm0QCKJmtPWOi7BC8LjFmXW3+JoXPW3H0NXFmRZN1Xp7jor4CpOinqbTUXQ/qjAJviH+DTHeDUtW8VlzaNeigtVATE96u5nwKk3DKOJVe/YF5h1rtytKRPMzHRPd9hkgXRzHYfr6+1oNPGNLjF9nMqWdJdRbt3KSL9b86gXJ0AoGgWq9ZmmLzDK4wDIJEFq1CNiedDBS1vPlEwwu6nhxD1/dCxvreXLPs/ZdZib5refE01CTAFrKEyKpPjPtePYR4rIm+MUf7a2ul6r52Uygzc+491tvTV6xoCsfBS9BTqt3iaX/gFgVp7KVvDMrfnGHST4CObg20bWwFn7hg+g6cYQZ1C9NQjXGFBpDBCtDiR2Bttbv9/m+o0h9iBWexB208BXd3vsdGsYdOywB++2DEZt4A7+NRbUDJBtvjGk3H9f+eYAc/NYZ4Ppy32p20c7H1hpl32xktYd97kcmFzPXW/50YYbDK5ovLGgsj5zwLk9aLrYpoYbQ3LVgdBtN4aU7zcNvq61v3JjSMuNCM1pW3NcrPV0HGzdprYeyZll0FdhaKSj+T3ft28mcW/AKLa/zNP2jSGqkrdz1WNXTa+2eqNcvX1jiJn/fL/6G7ZrN4a4dad9HBrrOLd+7spNYydNKjcsAEVeqex3th7r3OTm1Zob8fL3y/rMKVMNN5D0KlNXbwxxfqOu7OTLOpa39vLVbf11x6eTmu811ZNtx7GyLfn3zc+0pFuT9htD3DLgpEtDHVvNa+by6jrdMrivuTGkkgYdDZ472PM8XFuFTGZ60PANES8NJBPMXoHPR3Wb/1kpIm+Hl7bxcPR4g/O3RDIb4/w+vFvlfiQSvVOtLRRPK43g7V54PvhlZDLDKz7vOHyE6tXXWWnkYffSvx4b3B18LQAEALH8RHzSY9aGdgFQT19noOiGobuREqcHDUSmHgbn77x7uOaOyf+Ifl5anxs4nouUp5ZuW3pWuij+0kz7Q+hnD+sbSexgT0KeypvI+viWlkAiIiIi+lm+pSWQiIiIiH6WwUHg9buDiYiIiOinGRwEdmsJLCdLzsfcpJH+d/76kz3Ttvb1Xfv26PVflU+23jTp+p3JZAYvSovXYVJELY9h6a7uMRhdpYi8GRKZv7rLf6bvyt+9pNEd8kRHdY+WKRaVefO++XUIfa6I0vzVXX5fMpkNzBd/r0zd5gn2VSaYeRHS/NVd/gPoMYF9Hol13eAgsEtLYD4xtHIePDsVAqOJr5+7ZT4JPD8ADzhhF4lYBKRlgFr+VTOAta291Gd68+nz9j7a22NXUMZsBc7zmMz90n/V32zi7ltlXXfMcDdx8oGVdtm2Vba5bv+nAmI0gW9OkXSF9Vs16d7Gn4wgxLSYDiiNqt/tFpwEWOd3IVcqqGr+bV6fwPIw5I7TKYQYYeJfe6iyy8y35XHpnrbuPtYc2xZu/gayPNUpzYarBFbBurwztlcdZ5f/e2+3m1+7qw/Y7ONbrVOb+ZiMBMTUx2RU3efirzHd6uvcLir1SONv3MutZao971TyXE3eKfOPW766HS99fK9/rmTuq94eO8/c5/mRgFO+szTqVN/4E4yEwLTPRBFtdYkV15h50k1zMx2dY2UcY/3Q8Qvi0z2m89QGB4HdWgKdeSQrc+JCT5VzyedFfdxjN4J19WHKcGZcUHtgbmSQyrZ2pCuUOSozDMkEr+bT542pfcyAWak9psbUPmlkz1ZgzVtamemh28m+ad/KdekMd5eCeSdiedDznob2k9at/b8ssB0bBXLI3KXO0+u73IJf+xT8Byrz7x7TlZ5D9b76TWNXShFlU9nV5stOafuFc1EmauYMbVGbv9MIepPy382mYbt/ot2RdOalzY513WwQN7g1v+oT6xgr97nT7vyv8cme572RPSe6NWevOc+yuv9sUdKZN1sphf30cfPHDytTNdOmoQw6xpUDYs99rGdDsR8obp0Dr52D0wjjLXrUqe6+Blg757D83HeXR8wE6zK/mPnEqm/2wNxo5LgyZ3KTdFfOx21Px+fMGW3WWzLF1qjT9uGmLB/prjzPO1Ntam4ZGch9cGBfXVZhPZCzjfUQUeeBmPlDEGsfapk91NQ3HiQZX6yHWroPuyy3p+FhuzUPsLRVH6JZr/ow28pDHYvfqm5Lua3ueuzP2vs0jLuuYnv3YfFw5/IBls0Pi3Yfzpmv037QpbvP9nH34/+rzQduGrrbrJSbn+pVHkrscH9niLoHfJbbnaVDaOTv4sP5w6Kdh4heyTN628Mi/cK982Bb60Gmdl6qbkODffvDotvSr21Zm2vHrF01vfTbRl6xHuZsb6ebp8tDZJeNoiw4aezH5sOiq3VcJR8XdYNb/l123ii2y3lYdOUhtZWEMGX1avOPZmrS1K0/nTS9ibtOJ6+a9Uu5j/qY2u+V6Wiemyppb6l/CPS1h0Vbx6Hu/TpXHxadqUmP3LWyZS+vOX5t8jzVoX69pizLeR2nWeXM2Me242jXddX0qU+Ta+Uq+15DOlcZ+aGSPi2/1VI+zDyaqzuX3OobWgJTfKxueX5QgLV55bcO9FWOeQW/h311ufg0ovExdi/6c5e4ZWLxJqMJfGvev/uyWkatVip7GjG7JcPsMqheDRxX2aTydc3cNzOnHgJwPGHyqdP1sIQzl+oC23HZld9trk2Tbu0or4L2mJ7/V80HXQmBqTXf8o2MeZkf3SK6wUux76E1dRJ0d+5n3lre1BKSYrcxpjbbAC/ZMbCTzpmH8xIDUlZaQ/YY1u3wdT5a6VfpPuqRtnl3zq1TLWkNc4V2zCvWFI1ua7xRNi4x9PRhYonPvNW6Mg9ztY4L9BybRStnOT2Unn5zNa5Pq3wS+jzvYF7THSrzCe7LevFhgjUuiy3G+XGfA/ubj1k9mcwwP+Utg7o1N0qBYL1HWMzhq1u08rl7lWpuSQ50Ale64LKlVkua2XtTcltr98A8Quq2CKk9Jtcy2kPpc3L8zz4e+bMy24dbpIjGZ7zX1j39BWtdz81mcyCf4tNtRV5si7RuPY6NdV2bhrnEb5V+YHU0ztNWt7LbGpqTSN42ld5SLcXH6lgZhha8hMaUicMMDgK9ljGButLe4cXtArrV1xlHbDAvKpaNNQejnVDlgxOFmLbP1XgTXSl0z2yPZRcOd27U/sqAcoztwug6L+Y+RHZCDcv5TY25EqU8wTfnYu3EWR8CrB+cwMG6PbB0T/plU/9jlA/Rbaow6pUVuD4JFbvU9EBrKXHyYxTnAbHEeikqQZsuYi07HKyvdh2Z3Uxmt2DftM0//4nXmpP0dzHG64xX9tzBRtm4tXsVIsAC2ZzOMsHbxqjHivTKuq+9vCtLQp5846TuzDOe+zrjGPZ5CLXA8uAGrh3JBK/FiXyPEOac4PfxdT4a86e68+Y6zLFZdd2o0GXgYAQeOoA1uyvLMWX1q/iCLj5lWdzgBCn1BftmngfvAZZtaSqWONzrnFlDJm/YWPlAH+eyjKI2SNZB7hsml/by3o++uDmirIukPAHHVXEBMV4dccyjtLbj2FTXDSSWh4YLbkdxkdUvffILuGo5KxtFKqeoYA31CbzeocFncBCoWloCdaX1gl3rlUVP5pgQ1dQacgfF5OyPUWRq5MFtscS6KrEneTdbKpomMYeeELxDq0Ybc3xdNXM+CSlxslpPBxIBFgOvGusCKvcq7xZmoFWpMHqyx5YOP/7mPjdekPVIWxEsBrTSN1z5d8orTkv1Je4xJqqrbAaTXQqZboHaC6nspH2J4W92gy72HiXV3T9Z3azHf2H18R9tq9Pq3aFbQp+7Loizi9ruPRt5C2T+p4O5/CL9E69G8P5fqG8FNDWXry+cj8eiNVpfBG0wd1v3e6q9YHLGCusL9f7H8bqGnoG+ZILZeIvFxQnerXTUFwmmNPJ0z0ul0pZIZk4DjCmN4L0Cn3eo7wcHgW0tgZqO9CtXpbcYTeAfs6tkQCdUMiT7NUgjePMT4s+2ALPu7qZuRLCwKu90t4G/CCAqV7Mpdpt88K5zdS9TbI95K0GKyNyQdIeNcUJLo0dVOiNMfOMK39gmIaY4Ft1a1YC1CAxkim1RMJz1ufvVh0wwG68wzbsYGrSnjUQSGVfEMsXWqDBkMuvVIhW8hEaa6G1829yhArqFEJiaZUkmiBKJ0cTH0TxZywStRSyNql28BnefU91XDXElba3jkkZW96dMt9YFWvsxdOXTxDl3WL+u7ICrCFT1cAhTEbRbF293FPxDfJpjvJqWreJ1j3opLlQFxPSou58Bp94wjCZWvWNfYNa5/W7N0cS3jrt9zG5fr2k08Y0uMX2cmqejM8qtWxnpd2se9eIECMb2164iu8AojwMgkwQpUkTZsRPLgw5e6i6EcjLB7J4NJ4ZqK6D+vaixfJnnOefmksqNnLefE01CTAFrKEyKpPjPtePYh75p7RR/tra6XqvnZTKDNz7j3W29NXrGgOy8XPQW6LSqHdoiE8w8PTdwbQCY1aNlK/hA7iDBR6gb2FhhDZy1b/gAmm4McQbVW4NwjQGZxgDR6kBiZ7C99fttrt8YYg9itQdhNw18dbfHTreGQceVfXAHKjcMRm3QOEC6diBy840h5f77yjcHmJvHOhtMX+5L3T7a+cBKu+yLlbTuuM/XbjJw1+umectXazXeWFBZnzng3B40XWxTw40huepAaGcQu1XmyvebBl/X2rffGKLcfW4c5G3vg31cnEH5XQdbt6mtR3JmefJVGBrpaH7P9+2bSRpvhCi3374xRFXydq567Krp1VZvlKu3bwwxj4XvV3/DptdZWxdk3PzcfHyNY+bWz125aez8hrmd5Xbp36nsd7Ye69zk5Ak779t5oqzPnDLl5tWa887VMnX1xhC3PLjnvobfakx3d31u+aqvXyrrqzk+ndR8z81X+e+3HUcrL1vl1PhMU7q1uLTeGOKee7O/coNr69hqXiuX122nW8fe88aQb5k7WCYzjM/v1YiXHk8mmL0Cn4/qNv+zUkTeDi9XxsPRgw3O37rb5fw+vFvlfiQSvVOtLRRPK43g7V54PvhlZDLDKz4bW6/oXu5bZw3uDr4WAAKAWH4iPunB5kO7AKinr7MxNofuRkqcHjQQmXoYnL/z7mE9zukn1E/6eWl9buB4LlKeWrpt6VnpovhLM+0PoZ89rG8kuUcACADf0hJIRERERD/Lt7QEEhEREdHPMjgIJCIiIqLnMzAINB6c2nILNRERERH9LAODwOy5QXd5aCMRERERfZeBQSARERERPSMGgURERER/EINAIiIioj+IQSARERHRH8QgkIiIiOgPYhBIRERE9AcxCCQiIiL6gxgEEhEREf1BA4PAbMaQ+cZdQEREREQ/mKeUUu6bRERERPS7DWwJJCIiIqJnxCCQiIiI6A+6GgTKZAbP8+DNEkh3IRERERE9pc5jAtPIw9vkgsNSuIuIiIiI6MlcbQnMjSa++xYRERERPanOQSARERER/R6dg0ARLIDVB1J3ARERERE9nc5BIMQSB/WCnedhlvAWESIiIqJn1j0IlAlm3g4vSvHmECIiIqIn1zkIlOkWiP8hsN7V08ZF7CMmIiIieiqdg8Ba6Q4bP8Y/OzIkIiIioh+ucxD4dT66b0HKE/xFAHYOExERET2Xq0FgPmPI/BTj0xkL+HUGFgFDQCIiIqJn03nGECIiIiL6Pa62BBIRERHR78MgkIiIiOgP6hEESiQzDx4fFk1ERET09DqPCZTJDOPzO9Saz4MhIiIienY9WgIBfzJy3yIiIiKiJ9QrCCQiIiKi36FjEJjiY8VnAhIRERH9FleDQP2w6B1e1AHOs6KJiIiI6EldDQLF8gClXrDzZuBNwURERES/w9UgUAvwLwa2KaNAIiIiot+gYxBIRERERL9JryDweP5y3yIiIiKiJ9Q5CBTLT8SnOWcMISIiIvoFOs8YQkRERES/R+eWQCIiIiL6PRgEEhEREf1BA4PAFJE3QyLzV3f5Y6XRHccnygQzL0Kav7rLiYiIiH6RgUEgAEwhxAgTfwoh8mDKgxfZYVQaefAGBVcSycyDs9p6aQTP8/TfLIEsZj7J3sv+KuvyJxgJgak/wchZ1EUalb9HRERE9JMNDAJHmPjuewDgwz+9lS2DMsHbyUftRx8hWEPtQ8CPcTksUcx2F+6hlMr+9sDcCFaFwNRYRV8ymeHt9G17SERERDTIwCBQYHlYIyhec1O8v0+LGUZkusV0sTC+V99ap9/2MIsi3ZpoteS9YnUENnMPntn1fP6ofLabAGu1R7jJg9UA68MSonjVZDK7vt40wvj8jsP7kDCSiIiI6PsMDAJbBC+Yrj6QIsXHdoF/ZYSou4znJ8QX3Sp3WWwxNvpmj6cJPpWCUhfEWOEjzZ5T6APhXkGpA5ZZlFb32e5GmPhHDHoGtkwwe5vgsjZ3kIiIiOhne1wQiAD/4hPm3hx4N7pkAeDrjGP4XgRyIljA3+yK8YL+Isg+LyCuNK71+ewtxPIAZXYpW1JE4zPeG5cTERER/UwPDAIBsXxHiBAvP7aR7Avno4/JLXeBAICUOGGDed4dPd8AxxXG17qPiYiIiP5jDw0C9bg7c6xgZjSBX4zF02MGj+FL9XMPlSLy5jjFn0WLZJ3WMYFiiUNxo4mq3oySRgPviCYiIiJ6jAcHgQ3EEof9FKuxbkEbbxcdxtQJLN/D6o0hddKovlVuo+c+1n9zYK9waIsAB0p3G/jxv28ObomIiIiu49zBDyORzF6Bz/ImFiIiIqKf4r9pCfwTvnDGAgEDQCIiIvqB2BJIRERE9AexJZCIiIjoD2IQSERERPQHDQwCU0TeDInMX93l30wmmHkR0vzVXd7EmMJu9p/vBBEREdHjDQwCAWAKIUaY+FMIkT1XL38MSzYVXBp9Y3DlTzASAlN/gl7PgA73UOqxj4whIiIi+ikGBoEjTHz7HbE84KIn+YW6+uy/OxMCD5g5joiIiOjXGRgECiwPawTFa400gn5u8xie5yFrHLRbDIsHOutu5dksf6CzhyiVSIr/G13ORhdu+X6A9WEJUbyan+3RPUxERET0yw0MAjsI1tCzqV2glMI60EHZeLvAJZtu7bLY4rWI7o6YvpfTsG3mr8Cn/v8+PGKbSh0szk+IL9nnLgvgy/ldIiIiImr0+CCwhpQnPaVb1pI3Xh1xPOdRnI+JOZjPLx+4PJr42edGmPhHrMZZy6JYYlnbDJkJ1lB1cxgTERER/VH/SRAIlDdiFH+9xg8KLA/6ey873tVLRERE1Nd/EgQKMQU2b8YjZVIkfYI4mWCWDS4M1gqXOG8hbMAxgURERESWuweBMplhvDoCm3nxiJjgXwyYN4YEa1xiYDXOb+yY4yx6PJpFBFic5sWNIePVFPteLYlEREREfxvnDkbWUrh76dklTURERPS87t4S+LQ2umWRYwuJiIjoL2BLIBEREdEfxJZAIiIioj9ocBDoeZ77FhERERH9cIODwG69yeXUb/mYuzTS/85ff7Jn2ta+vmvfHr3+q9JIT0+Yv7rL70wmM3hRWrwOkyK6yyOOJJKZMfViL3pKx0Tmr+7yn+m78ncvaXSHPNGRTDBryO9m3rxvfh1Cnyvy6UIfvSkymQ3MF3+vTDX73mN3mydI82JK3HvU+dcNDgK7tATK5BWrqX449GFZPgpmKgRGEx9TIXRlVcwFnO38A07YaVTOS6wLvzk3sfP7Bmtbe6nPbPVzJ6OyPXYFlSIyttMtZNY63YUt3H0z06jvuh7CyQd1+1nZ5po0x1RAjCbwp6KcV/oK67dq0ryNPxlBiCn8bAqcNKp+v1twEmCdz3gjE8ys/FnNv83rE1geDjCKYE9TCDHCxJ+idzEo0tLc9vb8bLHmCq+WzzZu/gbc9bWl2XCVwCpYl08i6FXH2el17+1282sXdrkzy5yzrZ33EdmsUQJi6mMyqu7z9XXW17ldVOqRxt+4l9vKlLWdLecPu+7uXt6az0/XmMdOb4ubR9PI3a5bmfuTHW8rjqhLA9yW5u56rXU2n7Oby4dbbxt1WrDW0+nGJ8wr235/g4PAbi2BuoIxjSa+9X+IJQ6XGD5C7B84xVuwVsVcxmZAGu6N2Uv2wNwoJJVt7UhngDk27gKZ4HU1xT77vf10VcydbAbMSu0xXb0WGSeN5jhlczCrS4zTvMw4MplZ8zF3fdxN077lcz0rdUF8mlcK8n9JLA+4xL6edcbYz3Kb9XzS27FRIEcT1O9pG4l0Wx4nPZd1twBEiKn71kOV+XeP6WrcWsHfZoSGrNJNGmG8hXUM2vKzzZ4rvE/lWJu/0wjeHOVxVRcstuOak8VPIpHM5oBZT6k9pm0Pye/htvyaYneKyzngY2D1mgUM6a48tuqCGGUd107A3pQAa6P8wS9/Tx2WnS/mupDJDHPYM1ntp+cHTkt/W5lyt9M8f6TRGNuFXXfn2bpzeWs5P7Vzj53A8mCfw5BGmJ9iXDqen9oFWKs9QviIL+bFbWiUbYU95kaQdWOap1tMjTo23JTp2nzObikfMsW2+I7CPtxU6rTbyuQN1EBdVnGJfeXHF/ftqkusfIRqr5RSaq9CQCH/C/W7ah+W7xWfvajYh/J9v1jmxxe1D8vv51/Xq9DLNf1dc3n2IQU/Vs1brbev8r2KvQrhK3P3L7Ff7o8yf6u6LeW2uusxP+suG8ZOH2N796GCH6rQL9PYPk41+2kcw3yd+9DcR3ef7ePux/9Xmw/cNHS3WSk3P9Xbh0beumqvwivra2Pvd/me3u4sHUIjfxcfzn9Xf6ZYfiXP6DQKi/QL9xcV+8YxusTKN9K2LGLV9G60D41y2OASK9+P1aVSvpvys8Mtix2Oa7OG3zHXuQ+t/Tbzmpuny0Nkl42iLDhp7McXY/3VOq6Sj4t9d9PLZeeNYrvytM8/ZtWf145vVq82/6jN/S1rUcdzQBs3Hzh51axfyn3Ux9R+r0xHc7sqaW9xjlWxHU6Zcj5nHYe69+tcYuW3HGu37mvbh7LOcfNPQzmoWX9duvdxiX2jrmqqf+xjYubRpjJWe15sqBvcdKnoUo8ZynStpmPjb7WUD7fOaXzvAb6hJTDFxwpYBH2v2QKszSu/daCbZM0r+D3s6HnxWVzlYDXG7iWPwH1sdrXXPM1GE/jHx10FWi2jViuVD3uRedliNl8bV11S4oSjMQNLtQn+dhLp9lhu7/GEyadO18MSSGbm1eUC23HZlT82ryZDZ7W1dGtH2YKwx/T8v2o+6EoITHGCvFNSyOQNG3+C7p1l/W3wYlxtmlMrQl9Zf+at5U0tISl2G90FCgDYAC/ZMbCTLkU0XpVXt5cYkLLayoDyivc2KaLxGe+129qQn+uYXfhCoO2j7b5wPtplDOieV8TyUKRNpTXFKBuXGFh9pIBY4jNvtXaGw9TVccG/GNimRfdbutsgfF9CIICeeKm+fKfR2GqNwLymO1QmmFktqjc0ibRIP1Y41g61SPGxOt4wlKadTGa6VUmpojU3SoFgnbcOKaisVylYZ8dMKaj9tGyRMZgzW1W7QI0WycbWMbe1dg/MI6SQSF6Nsqb2mFzLaC3E8pC1bum8MN4u8Jnlq2CdtWpny+bYG+W+e3lrPj/1J5afuiV49ort4jNrsUsRjbdYZHlRXRbYZsekaxmzy1K70eTK1LJ9yARvG7MOaTtnl5rLh0Tytqn0liJ4qTkH3N/gINBrGROoxxXs8KKGjEMyfJ1xxAbzvB99vgFOsiisdiUT4iXL/EJMrc/dh64U+sQkD2V2kzjdyLc45pWhp7sXigLnL1DG8184H0O858tEgIW/wS4FpDzBj//17NZ31ocA6wcncLDuGFjmQW1tMHM/YZ5pe3ZbbOb5BYA+CRW7FL7UHwMpcfJj/MsXiiXWS4GvczblY34S2QCnthNWsC5OtFUSyewNk0vT8mdkjEMar3A0Fxll4+auHBFggRU+0vxkY9RjxcnRONFHKQAJefIRFwczwEt4xDZ1jtvXGcfwvUddLLA8dDvZFgFZpSyVF3aVRQN9nY9ZgAwAAsGi5WLfHNM1rwzQ0cQSh6wOvSy2GDtjtcxxcvWr+IIuPmVZ3OAEKXXAtZnnwXuAZVuaiiUObefMNCov1C4x/GOWX6C7Jovu4H0IfEMQcZ3A8j3E8Tgt63a34WK8wrFodOlWxu6qtR4z5RfPLcenRnP5KC/gquUswFp9Aq/uGMT7GhwEqpaWQF1pvWB34yDdWlaw09QacgdfZxwf2OpjXZV8nY2MfoS9yCwCZkuFhDwZi6xWyxEmvr2evszxddXM+SSkxMm6+r1RMYasSyXRri6gukcLiTmmtaae6cUaWzno+H/hfHQqemwwL06sLfnZZV7ESYm2j7ZrKBud8orTUn2JB7WQ1NMnzM0uhUy3QO2FlA7O1CWGv9nVj+v6RsV45EpdLJHMnIvI/4TT6t2hW0Kfuy6Is4va7j0beQtk/qeDhbwl8hOvRvB+C91qVFwsiiUO+xCbtwTS7XUL1mWLNNCrvDWfn25U25poj93TQdhjytjX2ejNulmKyL3IBq6cs9vKh75vYA57bLuxFJH3Cnx2bKi40eAgsK0lUNPdGJWr0luMJtZVDyCRJLcWphZpBG9+QvxZPWglfbVyS1kWwcKqvNPdBv4igKhczabYbfysUDtX9zLF9pi1EhgtcOWyson6fndjuUaY+Bu85RG+sU1CTHEsurWqFU4RDMkU26LMOOtDiujW7ZYJZuMVpvv2wO1a2qSRB+9tgktNACiTWU23UbPgJTTSRG+j3a3wjYTA1CxLMkGUSN1tsvooAwuZoLWIpVHL3bp2F5qu0PMbv1rys3tcgheExy3Kj25xNFo4rx1DWxZkWYPidXedFXAVQaceDmEqgvZ7nBzrBP8Qn+YYr8yWk5pHvRQXqgJiejRO9ma9YRhNrHrHPVlV1d/dWdLLx+f36sW4TDDzxji/111EXFtvN6OJnwU/KI5T2ZLuKsuZdCsj/W7No16coQNFo0C1PtP0BUZ5HACZJEiRIsqOnVgedBDa1jMlE8waG06yVkWjxTPV4z8gst8vz7XmUJ628mYfj+bzU/WzNxMCU5h1PZAmZf6+ZxlLIw/zU1x0mddqrcfy5W+YXNwAsO2c3VI+svjhbXJpDvDSHTa9Wu5v5A4SfIROg4KtQaL2DR9A040hzqB6axCuMcjTGNhaHUjsDLa3fr/N9RtD7MHI9iBsa/CrNVjU3h473RoGHbcucwcEX9c4sLV2gHDzjSHl/vvKNweYm8c6G+hrb6+7H3Y+sNIu+2IlrTvu8771xhBnMHj2V5vnOmoc9FxZnzmI2r4hpdjXhhtDcpUB3h0HZjcNoq/VZ0C1Wy5rj3W2xD0uVrl313FlG+vU1iM5swz6KgyNdDS/5/v2zSTuDRjF9pf76cfmjSGqkrdz1WPnHpf2eqNcvT0Y3cx/vl/9DZteZ21doNz8Y/+2m8/1X5ZWlXzQkZvGTpqY21n+vv6dyn5n67HOTU6esPO+nSfK+swpU26dUXPeuVqmrtwY4h5rO02c37eOb1N5qx7nxvPTrceu7ntu/ulbxurOPe46K2nQ4Eo9Vil7Vro0nLPrtiVP90peQzVfWPXE4wyeO9jzPFxbhUxmOhpuinjpcWSC2SvwWbkSoWFSRN4OLzUthPSNBudv3WV5fnev8P9LEoneqce3AvwX0gje7oXng2fEY/dtvituGtwdfC0ABLK7g056sPngZmTq5+sMFE35dDdS4tR00wV9n8H5O+8e1uMWf0L9pJ879g3dQP8RKU8t3bb0k/HYfYPsQfbj1RT7BweAAPAtLYFERERE9LN8S0sgEREREf0sg4NAIiIiIno+A4NA46GO7uMLiIiIiOjHGhgEZs8Ba35yJhERERH9QAODQCIiIiJ6RgwCiYiIiP4gBoFEREREfxCDQCIiIqI/iEEgERER0R/EIJCIiIjoD2IQSERERPQHMQgkIiIi+oMGBoHZjCHzjbuAiIiIiH4wTyml3DeJiIiI6Hcb2BJIRERERM+IQSARERHRH3Q1CJTJDJ7nwZslkO5CIiIiInpKnccEppGHt8kFh6VwFxERERHRk7naEpgbTXz3LSIiIiJ6Up2DQCIiIiL6PToHgSJYAKsPpO4CIiIiIno6nYNAiCUO6gU7z8Ms4S0iRERERM+sexAoE8y8HV6U4s0hRERERE+ucxAo0y0Q/0NgvaunjYvYR0xERET0VDoHgbXSHTZ+jH92ZEhEREREP1znIPDrfHTfgpQn+IsA7BwmIiIiei5Xg8B8xpD5KcanMxbw6wwsAoaARERERM+m84whRERERPR7XG0JJCIiIqLfh0EgERER0R/UIwiUSGYePD4smoiIiOjpdR4TKJMZxud3qDWfB0NERET07Hq0BAL+ZOS+RURERERPqFcQSERERES/Q8cgMMXHis8EJCIiIvotrgaB+mHRO7yoA5xnRRMRERHRk7oaBIrlAUq9YOfNwJuCiYiIiH6Hq0GgFuBfDGxTRoFEREREv0HHIJCIiIiIfpNeQeDx/OW+RURERERPqHMQKJafiE9zzhhCRERE9At0njGEiIiIiH6Pzi2BRERERPR7MAgkIiIi+oMGBoEpIm+GROav7vLHSqM7jk+UCWZehDR/dZcTERER/SIDg0AAmEKIESb+FELkwZQHL7LDqDTy4A0KriSSmQdntfXSCJ7n6b9ZAlnMfJK9l/1V1uVPMBICU3+CkbOokflb2d/dAlMiIiKiBxkYBI4w8d33AMCHf3orWwZlgreTj9qPPkKwhtqHgB/jcliimO0u3EMplf3tgbkRrAqBqbGKXvwYl2K9CgfOr0dEREQ/3MAgUGB5WCMoXnNTvL9PixlGZLrFdLEwvlffWqff9jCLIt2aaLXkvWJ1BDZzD57Z9Xz+qHy2mwBrtUe4yYPVAOvDEqJ41WQy67leIiIiop9vYBDYInjBdPWBFCk+tgv8KyNE3WU8PyG+6Jazy2KLsdE3ezxN8KkUlLogxgofafacQh8I9wpKHZA3ttV9trsRJv4Rg5+BfVxhnAeilT5mIiIiop/ncUEgAvyLT5h7c+Dd6JIFgK8zjuF7EciJYAF/syvGC/qLIPu8gLjSR9vns7cQywOU2aXsCtZWF3O4mVfHGhIRERH9MA8MAgGxfEeIEC9mK+CP8oXz0cek810g1wR4CYGTZOcxERER/WwPDQL1uDtzrGBmNIFfjMXTYwaP4Uv1cw+VIvLmOMWfRYtknWtjAtPIvOM5xW4DTEW2wjQaeEc0ERER0WM8OAhsIJY47KdYjfU4uvF2gcv6WggosHwPqzeG1EkjePONHqtnBnAbPfex/psD++F38o4mJ8yNdZ7iC/JdSXcb+PG/bw5uiYiIiK7j3MEPI5HMXoHP8iYWIiIiop/iv2kJ/BO+cMYCAQNAIiIi+oHYEkhERET0B7ElkIiIiOgPYhBIRERE9AcNDAJTRN4Micxf3eXfTCaYeRHS/NVd3sSYwm72n+8EERER0eMNDAIBYAohRpj4UwiRPVfPmUItjb4xuPInGAmBqT9Br2dAh3soNfyRMURERETPYGAQOMLEt98RywMuepJfqKvP/rszIfCAmeOIiIiIfp2BQaDA8rBGULzWSCPo5zaP4XleMa+u1WJYPNBZdyvPZvnDlz1EqURS/N/ocja6cMv3A6wPS4ji1fxsj+5hIiIiol9uYBDYQbDGPgT8+AKllJ5NI430LCFKQSmFy2KL1yK6O2L6rt9X+xCb+Svwqf+/D4/YplIHi/MT4kv2ucsC+HJ+l4iIiIgaPT4IrCHlSU/plrXkjVdHHM95FOdjYg7m88sHLo8mfva5ESb+Eatx1rIolljWNkNmgjVU3RzGRERERH/UfxIEAuWNGMVfr/GDAsuD/t7Ljnf1EhEREfX1nwSBQkyBzZvxSJkUSZ8gTiaYZYMLg7XCJc5bCBtwTCARERGR5e5BoExmGK+OwGZePCIm+BcD5o0hwRqXGFiN8xs75jiLHo9mEQEWp3lxY8h4NcW+V0siERER0d/GuYORtRTuXnp2SRMRERE9r7u3BD6tjW5Z5NhCIiIi+gvYEkhERET0B7ElkIiIiOgPGhwEep7nvkVEREREP9zgILBbb3I59Vs+5i6N9L/z15/smba1r+/at0ev/6o00tMT5q/u8juTyQxelBavw6SI7vKII4lkZky92Iue0jGR+au7/Gf6rvzdSxrdIU90JBPMGvK7mTfvm1+H0OeKfLrQR2+KTGYD88XfK1O3eYJ9lQlmXoQ0f3WX/wBplD1R5Y4FY3AQ2KUlUCavWE31w6EPy/JRMFMhMJr4mAqRHYD8kTHZAXjACbtIxCIgNecmdn7fYG1rL/WZvn7uZFS2x66gUkTGdhb5wEq7muVXuPtmppHn3TfD3cTJB1baZdtW2eaaNMdUQIwm8KeinFe6s+y49EgLfzKCEFP42RQ4aVQ9Jt2CkwDrfMabSgVVzb/N6xNYHg4wimBPUwgxwsSfomsxqB6XMr9bxzH7c9OnUDtXeDdu/gbc9bWl2XCVwCpYl08i6FXH2eX/3tvt5tfurgRsadTzmPmYjATE1MdkVN3n4q8x3err3C4q+bXxN+6lf5kq1OadtvOHk+8r3+2Qbu65pvGg1zH3VR9X++t62yvbfIua/exU3/gTjITA1J+gcyloq0us9DLT1q23zTrdyfPGcQrWCkpdEJ/m1W2/0eAgsFtLoK5gTKOJb/0fYonDJYaPEPsHTvEWrFUxl7EZkIZ7Y/aSPTA3MkhlWzvSFcocG3eBTPC6mmKf/d5+uirmTjYDZqX2mK5ei4yTRnOcsjmY1SXGaZ5lHLHEwZx9Re0RIsRLh0Rs2rd8ruc8w92lYN6JWB5wiX0964zxWJ9ym/V80tuxUSBHE9TvaTdpNMa2xxqEmLpvPVSZf/eYrsZ3qyBKIzRklVa60ir/LrEPfxGUQbgzc1DtU5pkgtkcRXlR+ylWr+4JrF5t/k4jeOb61AWL7bjnCe27SSQ6EaxyPm17SH4Pt+ZXfWIdY3V0l2RkgtnbqU/Jgb0pAdbFcQ8BPy7mnFeH5Q0Xc81kMsMcdn7cT88PnJb+tjJVBAnzypml9fxRyfdG+jWeqxwy3WJq1DXhpmsw4u5rgLV5DjO23Twv3yxYl/nFzCdWfbMH5kYgKwRuKQXp7oT4kq3zEgNFmkskr6syvcx6S6bYFsdJYR9uMM+3I92V53l1QYwyPtDcMjKQGqjLKi6xr/z44r5ddYmVj1DtlVJK7VUIKOR/oX5X7cPyveKzFxX7UL7vF8v8+KL2Yfn9/Ot6FXq5pr9rLs8+pODHqnmr9fZVvlexVyF8Ze7+JfbL/VHmb1W3pdxWdz3Vz+bs/evP/X6xvftQwQ9V6JdpbB+nmv00jmG+zn1obre7H/Zx9+P/q80Hbhq626yUm5/q7UMjbzXI86/7m33Z+12+p7c7S4fQyN/Fh/cqRKj22WeK5VfyjN7esEi/cH9RsW8co0usfCNt83WY5ebq/u5Doxxe4RyPzunpHsdLrPzWstmmml76beM39qG1XeZ2unm6PER22SjKgpPGfnwx1l+t4yr5uKgb3PLvsvNGsV1uWln157Xjm9WrzT+aaUjTIt9e2/aOaupkM6+a9Uu5j/qY2u+V22Kemyppb3GOVbEdTplyPmcdh7r361xi5XdJr0p6VI9DpX5p+90bjlNdndZHWf/meUWzypmxj23H0a7rqulTX99c3+dL7FfyXTMjP7j1VttvOXWOqS5+Gprupm9oCUzxsQIWQd/oPsDavPJbBzUtAiijZwBYfBrR+Bi7F/25S+xjs+t0uVIaTeAfH3cVaLWMWq1UPuxF5uWT2WXQcDUgE7xtQrzf42oKACCRbo/l9h5PmHzqdD0sgWRmtk4usB2XXfljs7UzdFZbS7d2lFdBe0zP/6vmg66EwBQnyC5NRk3SCOPz+32uTjvY4KXY99CaWhG6O/czby1vaglJsdvoLlAAwAZ4yY6BnXQporFxlXqJASkrrSF7dL3Svy79WAHxP7uVP3s+Z6UbxSSWOGSt857nwRtvsfis2/cuvnA+2mUM6J5XxPJQpI3VGg+7bFxiYPWRAmKJz7zV2hkOU1fHBf9iYJsWrZzpboPwfQmBAHripfq0SqOx1QKEeU23nkwwm5etFpf4pmaojiSS2Rsml8f16shkhvkpbxnUrblRCgTrPUL42X7q37dapBtaks2ZrapdpUaLpNN7U3Jba/fAPELqtgipPSbXMtrNms4fXzgfgc3c6GYcWrBlgrdNTVnqIVjrem42mwP7LK+kEcbbRdHie1lsi7RuPY6NdV2bESb+EXdqUAfSD6yOxnna6lZ2W0NzEsnbptJbqqX4WB0rw9CClxCbNzeP3mZwEOi1jAnUXQU7vKgh45AMX2ccsSlPBvMNcJJFQtgJVXaHCjG1PncfulLontm+R+2J9gbHvDL0xtgujK5zf4Eynv/C+WgEnCLAwt9glwJSnuD33g5nfQiwfnACB+uWwFImmL1NcGla/gBh0YffVGHUKyt3fRIqNjl8qT8GUuLkx/iXLxRLrJcCX/pMUZwodBFrKTnBujjRtqq5OHEDqrIbxZUiKi7+Loj9ow6w/hPGeJ3xClYvqFE2bu1ehQiwwAofaZlmRT1WpFfWfV2cyCXkyUdcHMwAL+ER29RJzK8zjuF7j7pYYHlwA9du0miM8/ud6v0GX+djFiADgECwaLnYN8dm1XSjAtnFhhF4jD3PGqtljimrX4UbaM2xwQlS6gv2zTwP3gMs2xJGLHG41znTkl085uVo0Liy/CJy6Hbqi5sjyrpIyhNwXGXp72G8OuKYR2ltx7GprhtILA8NF9yO4iKrQ31oyC/gquWsbBSpnIKCNdQn8Fo3rrGnwUGgamkJ1JXWC3bXBpv2YY4JUU2tIXfwdcaxz+DQnopMjTy4LZZYVyVfZ/M0Y7ZUSMiTsQj1J9pbmePrqpnzSUiJk9V62tPXGUenMjLnxL5FXUDlXuXdwhzTWqkwerLGVt7p+F+9OBEBFg1X5DJ5w6ao4AWWh7pW0q4arvw75RWnpfoS9xjr1pXA8j3EZpdCptuGNNPBmbrE8De7yk1s/z1dN9nB0BGr8R3PA704rd4duiX0ueuCOLuo7d6zkbdA5n86SMpbsD7xagTvj9D1/KED07r66LoUkXuxOUDtBZMzVlhfqPc/jtc19Az0JRPMxlssLk5QbPUm6osEUxp5uuelkpASycxpgDGlEbxX4PMO9f3gINBraQnUdKRfuSq9xWgC/5hdJQM6oZIHFKY0gjc/IW7tcqq7u6kbESysyjvdbbLB8u7VbIrdxs+60p2re5lie7Rv/mg60abRoyqdESb+Bm95zW5skxBTHIturWrAWlQ+MsW2KBjO+pAiunW7ZYLZeIVp3sXQoDVtgrVVEbk3o8hkVtNt1Cx4CY00yYP2O1RAtxACU7MsyQRRIjGa+DiuPsrAQiZoLWJpVHs3vaX24kQiiYy0kym2RmVsHhchpoAZ7KQ7bIyArfUYVmRBltmNm3XXWWWn6DnQwyFMRdBuXbzdUfAP8WmO8WpappmsedRLcaEqIKZm66hZbxhGE6vesQOEOrferZkFqUXZybtn8xPkreu1jSa+0SWmj1PZku4q85Z0KyP9bs2jXpwAoWgUqNZnmr7AMFupZZIgRYooO3ZiedDBS1vPlEwwu6nhpMf5wx020sg5z6URPO8Nk0td8HH7OdGky7t5kZciKf5z7Tj2oYPZU/zZ2pp5rZ6XyQze+Ix3t/XW6BkDsnqr6C3QafU2uVQDQJlg5o1xfm++AC+HidyBO0jwEeoGNlZYA2ftGz6AphtDGga9ugMyjQGi1YHEzmB76/fbXL8xxB7Eag/Cbhr46m6PnW4Ng45VdRCssaB5MGqDxgHStb/RfGNIuf++8s0B5uaxzgbTl/tSt492PrDSLvtiJa077nM5MPk6e2Bxl4HWVY03FlTWZw44twdNF/vacGNIrjoQ2hnEbpW58v2mwde1rt4Y0rx97jEzP+MeFzvd3IH4V7axTm09kjPLoK/C0EhH83u+b99M4t6AUWx/maftG0NUJW/nqseuml5t9Ua5evvGEDMdfb/6Gza9ztq6IOPm52r9oKrHyK2fu3LT2EkTczvL7dK/U9nvbD3WucnJE3Y+s/NEWZ85ZarhBpJeZerqjSHOb9TUI3Vp0raskrecvFtmf+dzxj7WHZ9Oar7n5qv899uOo5WXrXJqfMbZ9tbsn7m03hhip2nxV25wbR1bzWvl8rrtdOvYe94YMnjuYM/zcG0VMplhfH6vRrz0eDLB7BX4fFS3+Z+VIvJ2eOkyHo4eZ3D+1t0u5/e6lo3/ikSid6q1heJppRG83QvPB7+MTGZ4xWdj6xXdy33rrMHdwdcCQAAQy0/EJz3YfGgXAPX0dQbM57LRfUiJ04MGIlMPg/N33j2sx6/9hPpJPy+tzw0cz0XKU0u3LT0rXRR/aab9IfTzHPWNJPcIAAHgW1oCiYiIiOhn+ZaWQCIiIiL6WQYHgURERET0fAYGgcaDU1tuoSYiIiKin2VgEJhNpXOXhzYSERER0XcZGAQSERER0TNiEEhERET0BzEIJCIiIvqDGAQSERER/UEMAomIiIj+IAaBRERERH8Qg0AiIiKiP4hBIBEREdEfNDAIzGYMmW/cBURERET0g3lKKeW+SURERES/28CWQCIiIiJ6RgwCiYiIiP6gq0GgTGbwPA/eLIF0FxIRERHRU+o8JjCNPLxNLjgshbuIiIiIiJ7M1ZbA3Gjiu28RERER0ZPqHAQSERER0e/ROQgUwQJYfSB1FxARERHR0+kcBEIscVAv2HkeZglvESEiIiJ6Zt2DQJlg5u3wohRvDiEiIiJ6cp2DQJlugfgfAutdPW1cxD5iIiIioqfSOQisle6w8WP8syNDIiIiIvrhOgeBX+ej+xakPMFfBGDnMBEREdFzuRoE5jOGzE8xPp2xgF9nYBEwBCQiIiJ6Np1nDCEiIiKi3+NqSyARERER/T4MAomIiIj+oB5BoEQy8+DxYdFERERET6/zmECZzDA+v0Ot+TwYIiIiomfXoyUQ8Ccj9y0iIiIiekK9gkAiIiIi+h06BoEpPlZ8JiARERHRb3E1CNQPi97hRR3gPCuaiIiIiJ7U1SBQLA9Q6gU7bwbeFExERET0O1wNArUA/2JgmzIKJCIiIvoNOgaBRERERPSb9AoCj+cv9y0iIiIiekKdg0Cx/ER8mnPGECIiIqJfoPOMIURERET0e3RuCSQiIiKi34NBIBEREdEfNDAITBF5MyQyf3WXP1Ya3XF8okww8yKk+au7nIiIiOgXGRgEAsAUQoww8acQIg+mPHiRHUalkQdvUHAlkcw8OKutl0bwPE//zRLIYuaT7L3sr7Iuf4KREJj6E4ycRa3yffaG7iMRERHR9xgYBI4w8d33AMCHf3orWwZlgreTj9qPPkKwhtqHgB/jcliimO0u3EMplf3tgbkRrAqBqbGKzmSC2XiLxSVf7xqB+xkiIiKiH2ZgECiwPKwRFK+5Kd7fp8UMIzLdYrpYGN+rb63Tb3uYRVHZsla05L1idQQ2cw+e2fV8/qh8tpsAa7VHuMmD1QDrwxKieNVkMmtdb/qxAuJPzqtMRERET2VgENgieMF09YEUKT62C/wzm8dkgtn8hDhrPbssthgbfbPH0wSfSkGpC2Ks8JFmzyn0gXCvoNShCLrqPtvdCBP/iNufgS0hT8BxNa4NaImIiIh+qscFgQjwLz5h7s2Bd6NLFgC+zjiG70UgJ4IF/M2uGEvnL4Ls8wLiSh9tn8/eQiwPUGaXcoVfBLNKKeynK7ze62YVIiIiogd5YBAIiOU7QoR4+bGD5L5wPvqY9LoLxGW3JI4mPqfXIyIioh/voUGgHndXc6PEaAK/GIunxwwew5fq5x4qReTNcboynq99TKBAsPCx2eVtmBLp9gg/jyrTiHcLExER0Y/04CCwgVjisJ9iNdbj6MbbBS7rayGgwPI9rN4YUieN4M03wHGFsRnAbfTcx/pvDuwVDm0RYAdiecAe+XrHWE33xTrT3QZ+/O+bg1siIiKi6zh38MNIJLNX4LO8iYWIiIjop/hvWgL/hC+csUDAAJCIiIh+ILYEEhEREf1BbAkkIiIi+oMYBBIRERH9QQODwBSRN0Mi81d3+TeTCWZehDR/dZc3Maawm/3nO0FERET0eAODQACYQogRJv4UQmTP1csfw5JNBZdG3xhc+ROMhMDUn6DXM6DDPZQa/sgYIiIiomcwMAgcYeLb74jlARc9yS/U1Wf/3ZkQeMDMcURERES/zsAgUGB5WCMoXmukEfRzm8fwPA9Z46DdYlg80Fl3K89m+QOdPUSpRFL83+hyNrpwy/cDrA9LiOLV/GyP7mEiIiKiX25gENhBsMY+BPz4AqUU1oEOysbbBS5KQSmFy2KL1yK6O2L6rt9X+xCb+Svwqf+/D4/YplIHi/MT4kv2ucsC4HS9RERERJ09PgisIeVJT+mWteSNV0ccz3kU5yOfelf/t3zg8mjiZ58bYeIfsRpnLYtiiWVtM2QmWEPVzWFMRERE9Ef9J0EgUN6IUfz1Gj8osDzo773seFcvERERUV//SRAoxBTYvBmPlEmR9AniZIJZNrgwWCtc4ryFsAHHBBIRERFZ7h4EymSG8eoIbObFI2KCfzFg3hgSrHGJgdU4v7FjjrPo8WgWEWBxmhc3hoxXU+x7tSQSERER/W2cOxhZS+HupWeXNBEREdHzuntL4NPa6JZFji0kIiKiv4AtgURERER/EFsCiYiIiP6gwUGg53nuW0RERET0ww0OArv1JpdTv+Vj7tJI/zt//cmeaVv7+q59e/T6r0ojPT1h/uouvzOZzOBFafE6TIroLo84kkhmxtSLvegpHROZv7rLf6bvyt+9pNEd8kRHMsGsIb+befO++XUIfa7Ipwt99KbIZDYwX/y9MnWbJ9hXmWDmRUjzV3f5D5BG2RNV7lgwBgeBXVoCZfKK1VQ/HPqwLB8FMxUCo4mPqRDZAcgfGZMdgAecsItELAJSc25i5/cN1rb2Up/p6+dORmV77AoqRWRsp5UPrPTrV3m6+2amkXfnDHcTJx9YaZdtW2Wba9IcUwExmsCfinJe6Sus3+qZtv5kBCGm8LMpcNKo+t1uwUmAdT7jTaWCqubf5vUJLA8HGEWwpymEGGHiT9GvGJj51jwuLfnZZc0VXi2fbdz8Dbjra0uz4SqBVbAun0TQq46z0+ve2+3m1y7scmeXObvs9DlmPiYjATH1MRlV97n4a0y3+jq3i0o90vgb93JrmWrJO3XnUqCSf6y806N8WWnUWmhd5r7qbbG/ruuyu+Rpc3+yNOpUl/sTjITA1J+gcyloq0usY2HmSbfebj5O5jEO1gpKXRCf5tVtv9HgILBbS6CuYEyjiW/9H2KJwyWGjxD7B07xFqxVMZexGZCGe2P2kj0wNzJIZVs70oVljo27QCZ4XU2xz35vP10VcyebAbNSe0xXr0XGSaM5TtkczOoS4zTPM06KaLzFophL2VzWrmnf8rme8wx3l4J5J2J5wCX29awzxmN9ym3W80lvx0aBHE1Qv6cdOLPbdHmSkBBT962HKvPvHtPV+G4VRGmEhqxyRYrImwPF9pVBaHN+dtlzhV/iE+Ydd7A2f6cR9Cbl23TBYjvueUL7bhLJzEzH7Fi3PSS/h9vya4rdKS7ngI+B1Wt2wnLnh+98zATsTQmwzvdXV9zFOtVh2flirguZzDCHXdb30/MDp6UfUqY8ePPKmUUHHea5oDiXuvnHPLf0KF9phHlxzPsEI+6+Blg7ZT4/95nn5ZsF6zK/mPnEqsv3wNwIZIXATaVgV6ad0oUgS1eJ5HWFaZ7m+2lZPmSKbXGeV9iHmzLN011ZL6oLYpTxgeaWkYHUQF1WcYl95ccX9+2qS6x8hGqvlFJqr0JAIf8L9btqH5bvFZ+9qNiH8n2/WObHF7UPy+/nX9er0Ms1/V1zefYhBT9WzVutt6/yvYq9CuErc/cvsV/ujzJ/q7ot5ba66zE/6y7bq7BIm/7s9DG2dx8q+KEK/TKN7eNUs5/GMczXuQ/NfXT32T7ufvx/tfnATUN3m5Vy81O9fWjkrRru7wxh73f5nt7uLB1CI38XH86Pp/5MsfxKntHbHhbpF+4vKvaNY3SJlW+kbb4Os9xc3fd9aJTDqub0c/NsdT8KblnscFybNfyOuc59aG2zuQ9uni4PkV02irLgpLEfX4z1V+u4Sj4u9t1NL5edN4rtusTKN9POqj+vHd+sXm3+UZv5W+4xc9L0Ju46nbxq1i/lPupjar9XpqN5bqqkvcU5VsV2OGXK+Zx1HOrer3OJld96rDMN6VG/D26+N7bbXU9L+XLX31y+uynrX/ucZZUzY9vajqNd11X3q35br5Wr7HutsYDJSNdKOrb8Vkv5qIuf6s4lt/qGlsAUHytgEfSN7gOszSu/daCvcswr+D3sK5bFpxGNj7F7ya9sfGx2nS5XSqMJ/OPjrgKtllGrlcqHvci8fDK7DMyrgQDrrOVLNyHPgf29WlMl0u2x3N7jCZNPna6HJZDMzNacBbbjsit/bLZ2hs5qa+mr1fIqaI/p+X/VfNCVEJjiBDm0ETN7hmSlqf8BNngp9j20plaE7s79zFvLm1pCUuw2ugsUALABXrJjYCddimhsXKVeYkDKSmvIHl2v9Ot9nbPZg2q7PZrycw2zC//GK3btC+ejXcaA7nlFLA9F2lRaL42ycYmB1UcKiCU+81ZrZzhMXR0X/IuBbVp0/6S7DcL3JQQC6ImX6vNhGo2tHgTMa7pDZYKZ1eJzUzNUo/RjhWN+nII1Lostxvlxn+PuszrJZGa1Si22ugU8WO8Rws/2U9eDuhstP28YLTIGc2arajer0SLp9N6Uqq1tmEdI3RYhtcfkWka7iYQ8Acd8H6z9EFgespYvz4PnjbFdfJZDQ3qUL3NYxW0tyKVgreu52cw4Z7mtyIttkdatx7GxrmszwsQ/4k4N6kD6gdXRqNesbmW3NTQnkbxtKr2lWoqP1bEyDC14CbF5c/PobQYHgV7LmEDdB7/Di9EFNMjXGUdsMC8qlg1wkkVC2AkV4iXLCEJMrc/dh64Uume2R5JIXssugH2IwRmkrEjG2C6MrnN/gTKe/8L5GOI9XyYCLPwNdikg5Ql+/K9nIOqsDwHWD07gYN0eWLon/bKp/zHCPNM2Vhj1NkXlrk9CxS6FL/XHQEqc/Bj/8oViifVSVII2XcRadjhYG11O9cyhFq1dTU/BGK8zXuFoLjLKxs0nRxFggRU+Uh20vW2MeqzIi1n3tZd3ZUnIk4+4OJgBXsIjtqlz3L7OOIbvPepigeXBDVzrFQFZnvFkgtfiRL5HiA3e7lxwvs7HLEAGAIFg0XKxb47NqutGhS4DByPw0AGs2V1ZjimrX8UXdPEpy+IGJ0ipL3A28zx4D7BsS1OxxOHmc2Ye/GbnAiNYTaMyQL3EPo6rj4bhF99JX9wcUdZFUkeyxQXEeHXEMY/S2o5jU103kFgeGi64HcVFVnt96Mov4KrlrGwUqZyigjXUJ/BaN66xp8FBoGppCdSV1gt2Nw7SrWWOCVFNrSF38HXGsc/g0J6KTI08uC2WWFclX2fzNGO2VOirPiC7+kB5AgrWehzBx4DMYY6vq2bOJyElTlZr00AiwGLgVWNdQOVe5d3CDLQqFUZP1tjKOxx/c5/tC7KG/FzHvIiTEm0fbddw5d8przgt1Zf49nGmjQSW7yE2uxQy3QK1F1I6OFOXGP5m95+fyGUy0y03Rl2c6u6f7P96/Bf+s6DDafXu0C2hz10XxNlFbfeeDTsIy8fA5i1Yn3g1gvdHsPP2aOLrc03NBcU+NALzHuXLLM+ytdB2U3vB5IzD1hfq/Y/jdQ09A30VYzGd4N3qTdQXCaY08nTPS6XSlkhmTgOMKY3gvQKfd6jvBweBbS2Bmo70K1eltxhN4B/N4EYiSR5QmNII3vyE+LMtwKy7u6kbESysyjvdbeAvAojK1WyK3cbPutKdq3uZYnvMCvVoAv+4RZHEMsXWyNhp9KhKZ4SJb1QkxjYJMcWx6NaqnuCLikSm2BYFw1kfUkS3brdMMBuvML3SLd6eNhJJZLSoOukqk1lNt1Gz4CU00kRv49vmDhXQLYTA1CxLMkGUSH3SME/WMkFrEUuj1rsJ3X1OdV81RFt+do9L8ILQyN8y3eJoXPW3H0NXFmRZN6Ho7jor4CpOino4hKkI2q2LtzsK/iE+zTFeTctW8bpHvRQXqgJietTdz4BTbxhGE6vesS8w61y7W1MvH5/fKxfjo4lvHXeZbo2L6mvr7WY08Y0eD32cypZ0l1Fu3cpIv1vzqBcnQDC2v3YV2QVGeRwAmSRIkSLKjp1YHnTw0tYzJRPMbmo4cc8fxlAeITBFFtACWR7J8nJr+bLPc3Z5dtP89nOiSYgpYA2FSZEU/7l2HPvQN62dYqNbvMa1el4mM3jjM97d1lujZwwAkO6wKXoLdFq9TS7VAFAmmHljnN+bL8DLYSJ34A4SfIS6gY0V1sBZ+4YPoOnGEGdQvTUI1xiQaQwQrQ4kdgbbW7/f5vqNIfYgVnsQdtPAV3d77HRrGHSsqulSLmsZjNrAHfxrLKgZINt8Y0i5/77yzQHm5rHOBtPb2+vuh50PrLTLvlhJ6477XA5Mrueut/yoO9C6m8YbCyrrMwec24Omi21quDEkVx0I7Qxit8pc+X7T4Ota+/YbQ5S7z1b+qTvW2RL3uFj5u+Ng6za19UjOLIO+CkMjHc3v+b59M0njjRDlfto3hqhK3s5Vj517XNy0tOuNcvX2jSHmsfD96m/Y9Dpr6wLl5p/qb9vbaxwzt37uyk1j5zcqNywYv1vZ72w91rnJyRN23rfzRFmfOWWq4QaSXmXq6o0hzm/UlZ18mbmg7ial8kvG+tzy1XH9Ncenk5rvNdWTbcexsi35983PtKRbk0vrjSF18YORLg11bDWvlcvrttOtY/d3vDFk8NzBnufh2ipkMtNXi27ES48nE8xegc9HdZv/WSkib4eXK+Ph6MEG52/d7XJ+H96tcj8Sid6p1haKp5VG8HYvPB/8MjKZ4RWfja1XdC/3rbMGdwdfCwABQCw/EZ/0YPOhXQDU09fZGJtDdyMlTg8aiEw9DM7fefewHmz+E+on/by0PjdwPBcpTy3dtvSsdFH8pZn2h9DPHtY3ktwjAASAb2kJJCIiIqKf5VtaAomIiIjoZxkcBBIRERHR8xkYBBoPTm25hZqIiIiIfpaBQWA2lc5dHtpIRERERN9lYBBIRERERM+IQSARERHRH8QgkIiIiOgPYhBIRERE9AcxCCQiIiL6gxgEEhEREf1BDAKJiIiI/iAGgURERER/0MAgMJsxZL5xFxARERHRD+YppZT7JhERERH9bgNbAomIiIjoGTEIJCIiIvqDrgaBMpnB8zx4swTSXUhERERET6nzmMA08vA2ueCwFO4iIiIiInoyV1sCc6OJ775FRERERE+qcxBIRERERL9H5yBQBAtg9YHUXUBERERET6dzEAixxEG9YOd5mCW8RYSIiIjomXUPAmWCmbfDi1K8OYSIiIjoyXUOAmW6BeJ/CNwFRERERPR0OgeBRERERPR7dA4Cv85H9y0iIiIielJXg8B8xpD5KcYnxwISERER/QqdZwwhIiIiot/jaksgEREREf0+DAKJiIiI/qD/B6SIPA+e58GbJeBjoImIiIh+v/8HBFgrBbUP3WVERERE9EuxO5iIiIjoD2IQSERERPQHMQgkIiIi+oMYBBIRERH9QQwCiYiIiP4gBoFEREREfxCDQCIiIqI/iEEgERER0R9Uzhgy37jLiIiIiOiX8pRSyn2TiIiIiH43dgcTERER/UEMAomIiIj+oP8PI3WkQ6M9sLYAAAAASUVORK5CYII=;" vertex="1" parent="1">
          <mxGeometry x="-128.99909090909097" y="1980.001818181818" width="641" height="562" as="geometry" />
        </mxCell>
        <mxCell id="yRr3s-q63M07JjMzN6V9-35" value="&lt;div&gt;&lt;span class=&quot;hljs-number&quot;&gt;&lt;span class=&quot;hljs-attr&quot;&gt;&lt;span style=&quot;background-color: transparent; color: light-dark(rgb(0, 0, 0), rgb(255, 255, 255));&quot; class=&quot;hljs-attr&quot;&gt;MonthID&lt;/span&gt;&lt;span style=&quot;background-color: transparent; color: light-dark(rgb(0, 0, 0), rgb(255, 255, 255));&quot; class=&quot;hljs-punctuation&quot;&gt;:&lt;/span&gt;&lt;span style=&quot;background-color: transparent; color: light-dark(rgb(0, 0, 0), rgb(255, 255, 255));&quot;&gt;&amp;nbsp;&lt;/span&gt;&lt;span style=&quot;background-color: transparent; color: light-dark(rgb(0, 0, 0), rgb(255, 255, 255));&quot; class=&quot;hljs-number&quot;&gt;1,&amp;nbsp;&lt;/span&gt;ProductID&lt;/span&gt;&lt;span class=&quot;hljs-punctuation&quot;&gt;:&lt;/span&gt; &lt;span class=&quot;hljs-number&quot;&gt;4&lt;/span&gt;&lt;span class=&quot;hljs-punctuation&quot;&gt;,&amp;nbsp;&lt;/span&gt;&lt;span class=&quot;hljs-attr&quot;&gt;YearID&lt;/span&gt;&lt;span class=&quot;hljs-punctuation&quot;&gt;:&lt;/span&gt; &lt;span class=&quot;hljs-number&quot;&gt;2021&lt;/span&gt;&lt;span class=&quot;hljs-punctuation&quot;&gt;,&lt;/span&gt; &lt;span class=&quot;hljs-attr&quot;&gt;QuantitySold&lt;/span&gt;&lt;span class=&quot;hljs-punctuation&quot;&gt;:&lt;/span&gt; &lt;span class=&quot;hljs-number&quot;&gt;15&lt;/span&gt; &lt;span class=&quot;hljs-punctuation&quot;&gt;&lt;/span&gt;&lt;br&gt;&lt;/span&gt;&lt;/div&gt;" style="text;html=1;align=center;verticalAlign=middle;whiteSpace=wrap;rounded=0;" vertex="1" parent="1">
          <mxGeometry x="645" y="2051" width="340" height="30" as="geometry" />
        </mxCell>
        <mxCell id="yRr3s-q63M07JjMzN6V9-36" value="&lt;span class=&quot;hljs-attr&quot;&gt;&lt;span class=&quot;hljs-attr&quot;&gt;MonthID&lt;/span&gt;&lt;span class=&quot;hljs-punctuation&quot;&gt;:&lt;/span&gt;&amp;nbsp;3, ProductID&lt;/span&gt;&lt;span class=&quot;hljs-punctuation&quot;&gt;:&lt;/span&gt;&amp;nbsp;5&lt;span class=&quot;hljs-punctuation&quot;&gt;,&lt;/span&gt; &lt;span class=&quot;hljs-attr&quot;&gt;YearID&lt;/span&gt;&lt;span class=&quot;hljs-punctuation&quot;&gt;:&lt;/span&gt; &lt;span class=&quot;hljs-number&quot;&gt;2022&lt;/span&gt;&lt;span class=&quot;hljs-punctuation&quot;&gt;,&lt;/span&gt; &lt;span class=&quot;hljs-attr&quot;&gt;QuantitySold&lt;/span&gt;&lt;span class=&quot;hljs-punctuation&quot;&gt;:&lt;/span&gt;&amp;nbsp;18" style="text;html=1;align=center;verticalAlign=middle;whiteSpace=wrap;rounded=0;" vertex="1" parent="1">
          <mxGeometry x="645" y="2226" width="340" height="30" as="geometry" />
        </mxCell>
        <mxCell id="yRr3s-q63M07JjMzN6V9-37" value="" style="endArrow=classic;html=1;rounded=0;exitX=1;exitY=0.5;exitDx=0;exitDy=0;entryX=0;entryY=0.5;entryDx=0;entryDy=0;" edge="1" parent="1" source="yRr3s-q63M07JjMzN6V9-1" target="yRr3s-q63M07JjMzN6V9-13">
          <mxGeometry width="50" height="50" relative="1" as="geometry">
            <mxPoint x="1197" y="2348" as="sourcePoint" />
            <mxPoint x="1247" y="2298" as="targetPoint" />
          </mxGeometry>
        </mxCell>
        <mxCell id="yRr3s-q63M07JjMzN6V9-38" value="" style="endArrow=classic;html=1;rounded=0;entryX=0;entryY=0.5;entryDx=0;entryDy=0;exitX=1;exitY=0.5;exitDx=0;exitDy=0;" edge="1" parent="1" source="yRr3s-q63M07JjMzN6V9-3" target="yRr3s-q63M07JjMzN6V9-16">
          <mxGeometry width="50" height="50" relative="1" as="geometry">
            <mxPoint x="1197" y="2348" as="sourcePoint" />
            <mxPoint x="1247" y="2298" as="targetPoint" />
          </mxGeometry>
        </mxCell>
        <mxCell id="yRr3s-q63M07JjMzN6V9-39" value="" style="endArrow=classic;html=1;rounded=0;entryX=0;entryY=0.5;entryDx=0;entryDy=0;exitX=1;exitY=0.5;exitDx=0;exitDy=0;" edge="1" parent="1" source="yRr3s-q63M07JjMzN6V9-5" target="yRr3s-q63M07JjMzN6V9-20">
          <mxGeometry width="50" height="50" relative="1" as="geometry">
            <mxPoint x="1197" y="2348" as="sourcePoint" />
            <mxPoint x="1247" y="2298" as="targetPoint" />
          </mxGeometry>
        </mxCell>
        <mxCell id="yRr3s-q63M07JjMzN6V9-40" value="" style="endArrow=classic;html=1;rounded=0;exitX=1;exitY=0.5;exitDx=0;exitDy=0;entryX=0;entryY=0.5;entryDx=0;entryDy=0;" edge="1" parent="1" source="yRr3s-q63M07JjMzN6V9-7" target="yRr3s-q63M07JjMzN6V9-14">
          <mxGeometry width="50" height="50" relative="1" as="geometry">
            <mxPoint x="1197" y="2348" as="sourcePoint" />
            <mxPoint x="1247" y="2298" as="targetPoint" />
          </mxGeometry>
        </mxCell>
        <mxCell id="yRr3s-q63M07JjMzN6V9-41" value="" style="endArrow=classic;html=1;rounded=0;exitX=1;exitY=0.5;exitDx=0;exitDy=0;entryX=0;entryY=0.5;entryDx=0;entryDy=0;" edge="1" parent="1" source="yRr3s-q63M07JjMzN6V9-9" target="yRr3s-q63M07JjMzN6V9-22">
          <mxGeometry width="50" height="50" relative="1" as="geometry">
            <mxPoint x="1197" y="2348" as="sourcePoint" />
            <mxPoint x="1247" y="2298" as="targetPoint" />
          </mxGeometry>
        </mxCell>
        <mxCell id="yRr3s-q63M07JjMzN6V9-42" value="" style="endArrow=classic;html=1;rounded=0;exitX=1;exitY=0.5;exitDx=0;exitDy=0;entryX=0;entryY=0.5;entryDx=0;entryDy=0;" edge="1" parent="1" source="yRr3s-q63M07JjMzN6V9-11" target="yRr3s-q63M07JjMzN6V9-18">
          <mxGeometry width="50" height="50" relative="1" as="geometry">
            <mxPoint x="1197" y="2348" as="sourcePoint" />
            <mxPoint x="1247" y="2298" as="targetPoint" />
          </mxGeometry>
        </mxCell>
        <mxCell id="yRr3s-q63M07JjMzN6V9-43" value="" style="rounded=0;whiteSpace=wrap;html=1;fillColor=#e1d5e7;strokeColor=#9673a6;" vertex="1" parent="1">
          <mxGeometry x="1742" y="1928" width="204" height="60" as="geometry" />
        </mxCell>
        <mxCell id="yRr3s-q63M07JjMzN6V9-44" value="" style="rounded=0;whiteSpace=wrap;html=1;fillColor=#e1d5e7;strokeColor=#9673a6;" vertex="1" parent="1">
          <mxGeometry x="1743" y="2033" width="205" height="88" as="geometry" />
        </mxCell>
        <mxCell id="yRr3s-q63M07JjMzN6V9-45" value="" style="rounded=0;whiteSpace=wrap;html=1;fillColor=#e1d5e7;strokeColor=#9673a6;" vertex="1" parent="1">
          <mxGeometry x="1742" y="2143" width="204" height="60" as="geometry" />
        </mxCell>
        <mxCell id="yRr3s-q63M07JjMzN6V9-46" value="" style="rounded=0;whiteSpace=wrap;html=1;fillColor=#e1d5e7;strokeColor=#9673a6;" vertex="1" parent="1">
          <mxGeometry x="1750" y="2247" width="204" height="60" as="geometry" />
        </mxCell>
        <mxCell id="yRr3s-q63M07JjMzN6V9-47" value="" style="rounded=0;whiteSpace=wrap;html=1;fillColor=#e1d5e7;strokeColor=#9673a6;" vertex="1" parent="1">
          <mxGeometry x="1745" y="2337" width="204" height="60" as="geometry" />
        </mxCell>
        <mxCell id="yRr3s-q63M07JjMzN6V9-48" value="" style="rounded=0;whiteSpace=wrap;html=1;fillColor=#e1d5e7;strokeColor=#9673a6;" vertex="1" parent="1">
          <mxGeometry x="1750" y="2438" width="204" height="60" as="geometry" />
        </mxCell>
        <mxCell id="yRr3s-q63M07JjMzN6V9-49" value="" style="rounded=0;whiteSpace=wrap;html=1;fillColor=#e1d5e7;strokeColor=#9673a6;" vertex="1" parent="1">
          <mxGeometry x="1750" y="2532" width="204" height="60" as="geometry" />
        </mxCell>
        <mxCell id="yRr3s-q63M07JjMzN6V9-50" value="P3-M1-Y2021,20" style="text;html=1;align=center;verticalAlign=middle;whiteSpace=wrap;rounded=0;fillColor=#e1d5e7;strokeColor=#9673a6;" vertex="1" parent="1">
          <mxGeometry x="1778" y="1940" width="138" height="30" as="geometry" />
        </mxCell>
        <mxCell id="yRr3s-q63M07JjMzN6V9-51" value="P4-M1-Y2021,15" style="text;html=1;align=center;verticalAlign=middle;whiteSpace=wrap;rounded=0;fillColor=#e1d5e7;strokeColor=#9673a6;" vertex="1" parent="1">
          <mxGeometry x="1785" y="2045" width="140" height="30" as="geometry" />
        </mxCell>
        <mxCell id="yRr3s-q63M07JjMzN6V9-52" value="P2-M2-Y2021,25" style="text;html=1;align=center;verticalAlign=middle;whiteSpace=wrap;rounded=0;fillColor=#e1d5e7;strokeColor=#9673a6;" vertex="1" parent="1">
          <mxGeometry x="1785" y="2073" width="140" height="30" as="geometry" />
        </mxCell>
        <mxCell id="yRr3s-q63M07JjMzN6V9-53" value="P3-M3-Y2021, 30" style="text;html=1;align=center;verticalAlign=middle;whiteSpace=wrap;rounded=0;fillColor=#e1d5e7;strokeColor=#9673a6;" vertex="1" parent="1">
          <mxGeometry x="1793" y="2157" width="116" height="30" as="geometry" />
        </mxCell>
        <mxCell id="yRr3s-q63M07JjMzN6V9-54" value="P5-M3-Y2022,18" style="text;html=1;align=center;verticalAlign=middle;whiteSpace=wrap;rounded=0;fillColor=#e1d5e7;strokeColor=#9673a6;" vertex="1" parent="1">
          <mxGeometry x="1793" y="2261" width="118" height="30" as="geometry" />
        </mxCell>
        <mxCell id="yRr3s-q63M07JjMzN6V9-55" value="P2-M4-Y2022,22" style="text;html=1;align=center;verticalAlign=middle;whiteSpace=wrap;rounded=0;fillColor=#e1d5e7;strokeColor=#9673a6;" vertex="1" parent="1">
          <mxGeometry x="1801" y="2346" width="110" height="30" as="geometry" />
        </mxCell>
        <mxCell id="yRr3s-q63M07JjMzN6V9-56" value="P4-M5-Y2022,14" style="text;html=1;align=center;verticalAlign=middle;whiteSpace=wrap;rounded=0;fillColor=#e1d5e7;strokeColor=#9673a6;" vertex="1" parent="1">
          <mxGeometry x="1799" y="2453" width="110" height="30" as="geometry" />
        </mxCell>
        <mxCell id="yRr3s-q63M07JjMzN6V9-57" value="P5-M6-Y2022,28" style="text;html=1;align=center;verticalAlign=middle;whiteSpace=wrap;rounded=0;fillColor=#e1d5e7;strokeColor=#9673a6;" vertex="1" parent="1">
          <mxGeometry x="1803" y="2545" width="101" height="30" as="geometry" />
        </mxCell>
        <mxCell id="yRr3s-q63M07JjMzN6V9-58" value="" style="rounded=0;whiteSpace=wrap;html=1;fillColor=#e1d5e7;strokeColor=#9673a6;" vertex="1" parent="1">
          <mxGeometry x="2067" y="1927" width="204" height="60" as="geometry" />
        </mxCell>
        <mxCell id="yRr3s-q63M07JjMzN6V9-59" value="" style="rounded=0;whiteSpace=wrap;html=1;fillColor=#e1d5e7;strokeColor=#9673a6;" vertex="1" parent="1">
          <mxGeometry x="2068" y="2032" width="203" height="88" as="geometry" />
        </mxCell>
        <mxCell id="yRr3s-q63M07JjMzN6V9-60" value="" style="rounded=0;whiteSpace=wrap;html=1;fillColor=#e1d5e7;strokeColor=#9673a6;" vertex="1" parent="1">
          <mxGeometry x="2067" y="2142" width="204" height="60" as="geometry" />
        </mxCell>
        <mxCell id="yRr3s-q63M07JjMzN6V9-61" value="" style="rounded=0;whiteSpace=wrap;html=1;fillColor=#e1d5e7;strokeColor=#9673a6;" vertex="1" parent="1">
          <mxGeometry x="2075" y="2246" width="204" height="60" as="geometry" />
        </mxCell>
        <mxCell id="yRr3s-q63M07JjMzN6V9-62" value="" style="rounded=0;whiteSpace=wrap;html=1;fillColor=#e1d5e7;strokeColor=#9673a6;" vertex="1" parent="1">
          <mxGeometry x="2070" y="2336" width="204" height="60" as="geometry" />
        </mxCell>
        <mxCell id="yRr3s-q63M07JjMzN6V9-63" value="" style="rounded=0;whiteSpace=wrap;html=1;fillColor=#e1d5e7;strokeColor=#9673a6;" vertex="1" parent="1">
          <mxGeometry x="2075" y="2437" width="204" height="60" as="geometry" />
        </mxCell>
        <mxCell id="yRr3s-q63M07JjMzN6V9-64" value="" style="rounded=0;whiteSpace=wrap;html=1;fillColor=#e1d5e7;strokeColor=#9673a6;" vertex="1" parent="1">
          <mxGeometry x="2075" y="2531" width="204" height="60" as="geometry" />
        </mxCell>
        <mxCell id="yRr3s-q63M07JjMzN6V9-65" value="P3-M1-Y2021,20" style="text;html=1;align=center;verticalAlign=middle;whiteSpace=wrap;rounded=0;fillColor=#e1d5e7;strokeColor=#9673a6;" vertex="1" parent="1">
          <mxGeometry x="2103" y="1939" width="138" height="30" as="geometry" />
        </mxCell>
        <mxCell id="yRr3s-q63M07JjMzN6V9-66" value="P2-M2-Y2021,40" style="text;html=1;align=center;verticalAlign=middle;whiteSpace=wrap;rounded=0;fillColor=#e1d5e7;strokeColor=#9673a6;" vertex="1" parent="1">
          <mxGeometry x="2111" y="2060" width="140" height="30" as="geometry" />
        </mxCell>
        <mxCell id="yRr3s-q63M07JjMzN6V9-67" value="P3-M3-Y2021, 30" style="text;html=1;align=center;verticalAlign=middle;whiteSpace=wrap;rounded=0;fillColor=#e1d5e7;strokeColor=#9673a6;" vertex="1" parent="1">
          <mxGeometry x="2118" y="2156" width="116" height="30" as="geometry" />
        </mxCell>
        <mxCell id="yRr3s-q63M07JjMzN6V9-68" value="P5-M3-Y2022,18" style="text;html=1;align=center;verticalAlign=middle;whiteSpace=wrap;rounded=0;fillColor=#e1d5e7;strokeColor=#9673a6;" vertex="1" parent="1">
          <mxGeometry x="2118" y="2260" width="118" height="30" as="geometry" />
        </mxCell>
        <mxCell id="yRr3s-q63M07JjMzN6V9-69" value="P2-M4-Y2022,22" style="text;html=1;align=center;verticalAlign=middle;whiteSpace=wrap;rounded=0;fillColor=#e1d5e7;strokeColor=#9673a6;" vertex="1" parent="1">
          <mxGeometry x="2126" y="2345" width="110" height="30" as="geometry" />
        </mxCell>
        <mxCell id="yRr3s-q63M07JjMzN6V9-70" value="P4-M5-Y2022,14" style="text;html=1;align=center;verticalAlign=middle;whiteSpace=wrap;rounded=0;fillColor=#e1d5e7;strokeColor=#9673a6;" vertex="1" parent="1">
          <mxGeometry x="2124" y="2452" width="110" height="30" as="geometry" />
        </mxCell>
        <mxCell id="yRr3s-q63M07JjMzN6V9-71" value="P5-M6-Y2022,28" style="text;html=1;align=center;verticalAlign=middle;whiteSpace=wrap;rounded=0;fillColor=#e1d5e7;strokeColor=#9673a6;" vertex="1" parent="1">
          <mxGeometry x="2128" y="2544" width="101" height="30" as="geometry" />
        </mxCell>
        <mxCell id="yRr3s-q63M07JjMzN6V9-72" value="" style="endArrow=classic;html=1;rounded=0;entryX=0;entryY=0.5;entryDx=0;entryDy=0;exitX=1;exitY=0.5;exitDx=0;exitDy=0;" edge="1" parent="1" source="yRr3s-q63M07JjMzN6V9-43" target="yRr3s-q63M07JjMzN6V9-58">
          <mxGeometry width="50" height="50" relative="1" as="geometry">
            <mxPoint x="1949" y="2247" as="sourcePoint" />
            <mxPoint x="1999" y="2197" as="targetPoint" />
          </mxGeometry>
        </mxCell>
        <mxCell id="yRr3s-q63M07JjMzN6V9-73" value="" style="endArrow=classic;html=1;rounded=0;entryX=0;entryY=0.5;entryDx=0;entryDy=0;exitX=1;exitY=0.5;exitDx=0;exitDy=0;" edge="1" parent="1" source="yRr3s-q63M07JjMzN6V9-44" target="yRr3s-q63M07JjMzN6V9-59">
          <mxGeometry width="50" height="50" relative="1" as="geometry">
            <mxPoint x="1971" y="2168" as="sourcePoint" />
            <mxPoint x="2021" y="2118" as="targetPoint" />
          </mxGeometry>
        </mxCell>
        <mxCell id="yRr3s-q63M07JjMzN6V9-74" value="" style="endArrow=classic;html=1;rounded=0;entryX=0;entryY=0.5;entryDx=0;entryDy=0;exitX=1;exitY=0.5;exitDx=0;exitDy=0;" edge="1" parent="1" source="yRr3s-q63M07JjMzN6V9-45" target="yRr3s-q63M07JjMzN6V9-60">
          <mxGeometry width="50" height="50" relative="1" as="geometry">
            <mxPoint x="1949" y="2247" as="sourcePoint" />
            <mxPoint x="1999" y="2197" as="targetPoint" />
          </mxGeometry>
        </mxCell>
        <mxCell id="yRr3s-q63M07JjMzN6V9-75" value="" style="endArrow=classic;html=1;rounded=0;entryX=0;entryY=0.383;entryDx=0;entryDy=0;entryPerimeter=0;exitX=0.999;exitY=0.389;exitDx=0;exitDy=0;exitPerimeter=0;" edge="1" parent="1" source="yRr3s-q63M07JjMzN6V9-46" target="yRr3s-q63M07JjMzN6V9-61">
          <mxGeometry width="50" height="50" relative="1" as="geometry">
            <mxPoint x="1949" y="2247" as="sourcePoint" />
            <mxPoint x="1999" y="2197" as="targetPoint" />
          </mxGeometry>
        </mxCell>
        <mxCell id="yRr3s-q63M07JjMzN6V9-76" value="" style="endArrow=classic;html=1;rounded=0;entryX=0;entryY=0.5;entryDx=0;entryDy=0;" edge="1" parent="1" source="yRr3s-q63M07JjMzN6V9-47" target="yRr3s-q63M07JjMzN6V9-62">
          <mxGeometry width="50" height="50" relative="1" as="geometry">
            <mxPoint x="1949" y="2247" as="sourcePoint" />
            <mxPoint x="1999" y="2197" as="targetPoint" />
          </mxGeometry>
        </mxCell>
        <mxCell id="yRr3s-q63M07JjMzN6V9-77" value="" style="endArrow=classic;html=1;rounded=0;entryX=0;entryY=0.5;entryDx=0;entryDy=0;exitX=1;exitY=0.5;exitDx=0;exitDy=0;" edge="1" parent="1" source="yRr3s-q63M07JjMzN6V9-48" target="yRr3s-q63M07JjMzN6V9-63">
          <mxGeometry width="50" height="50" relative="1" as="geometry">
            <mxPoint x="1949" y="2247" as="sourcePoint" />
            <mxPoint x="1999" y="2197" as="targetPoint" />
          </mxGeometry>
        </mxCell>
        <mxCell id="yRr3s-q63M07JjMzN6V9-78" value="" style="endArrow=classic;html=1;rounded=0;entryX=0;entryY=0.5;entryDx=0;entryDy=0;exitX=1;exitY=0.5;exitDx=0;exitDy=0;" edge="1" parent="1" source="yRr3s-q63M07JjMzN6V9-49" target="yRr3s-q63M07JjMzN6V9-64">
          <mxGeometry width="50" height="50" relative="1" as="geometry">
            <mxPoint x="1949" y="2247" as="sourcePoint" />
            <mxPoint x="1999" y="2197" as="targetPoint" />
          </mxGeometry>
        </mxCell>
        <mxCell id="yRr3s-q63M07JjMzN6V9-79" value="Shuffle" style="text;html=1;align=center;verticalAlign=middle;whiteSpace=wrap;rounded=0;" vertex="1" parent="1">
          <mxGeometry x="1826" y="1877" width="60" height="30" as="geometry" />
        </mxCell>
        <mxCell id="yRr3s-q63M07JjMzN6V9-80" value="Reduce" style="text;html=1;align=center;verticalAlign=middle;whiteSpace=wrap;rounded=0;" vertex="1" parent="1">
          <mxGeometry x="2138" y="1875" width="60" height="30" as="geometry" />
        </mxCell>
        <mxCell id="yRr3s-q63M07JjMzN6V9-81" value="" style="rounded=0;whiteSpace=wrap;html=1;fillColor=#fff2cc;strokeColor=#d6b656;" vertex="1" parent="1">
          <mxGeometry x="2417" y="2044" width="303" height="368" as="geometry" />
        </mxCell>
        <mxCell id="yRr3s-q63M07JjMzN6V9-82" value="P3-M1-Y2021,20&lt;div&gt;P2-M2-Y2021,40&lt;/div&gt;&lt;div&gt;P3-M3-Y2021,30&lt;/div&gt;&lt;div&gt;P5-M3-Y2022,18&lt;/div&gt;&lt;div&gt;P2-M4-Y2022,22&lt;/div&gt;&lt;div&gt;P4-M5-Y2022,14&lt;/div&gt;&lt;div&gt;P5-M6-Y2022,28&lt;/div&gt;" style="text;html=1;align=center;verticalAlign=middle;whiteSpace=wrap;rounded=0;fillColor=#fff2cc;strokeColor=#d6b656;" vertex="1" parent="1">
          <mxGeometry x="2455" y="2101" width="243" height="264" as="geometry" />
        </mxCell>
        <mxCell id="yRr3s-q63M07JjMzN6V9-83" value="" style="endArrow=classic;html=1;rounded=0;entryX=0;entryY=0.5;entryDx=0;entryDy=0;exitX=1;exitY=0.5;exitDx=0;exitDy=0;" edge="1" parent="1" source="yRr3s-q63M07JjMzN6V9-58" target="yRr3s-q63M07JjMzN6V9-81">
          <mxGeometry width="50" height="50" relative="1" as="geometry">
            <mxPoint x="2051" y="2337" as="sourcePoint" />
            <mxPoint x="2101" y="2287" as="targetPoint" />
          </mxGeometry>
        </mxCell>
        <mxCell id="yRr3s-q63M07JjMzN6V9-84" value="" style="endArrow=classic;html=1;rounded=0;entryX=0;entryY=0.5;entryDx=0;entryDy=0;exitX=1;exitY=0.5;exitDx=0;exitDy=0;" edge="1" parent="1" source="yRr3s-q63M07JjMzN6V9-59" target="yRr3s-q63M07JjMzN6V9-81">
          <mxGeometry width="50" height="50" relative="1" as="geometry">
            <mxPoint x="2393" y="2600" as="sourcePoint" />
            <mxPoint x="2443" y="2550" as="targetPoint" />
          </mxGeometry>
        </mxCell>
        <mxCell id="yRr3s-q63M07JjMzN6V9-85" value="" style="endArrow=classic;html=1;rounded=0;exitX=1;exitY=0.5;exitDx=0;exitDy=0;" edge="1" parent="1" source="yRr3s-q63M07JjMzN6V9-60">
          <mxGeometry width="50" height="50" relative="1" as="geometry">
            <mxPoint x="2288" y="2714" as="sourcePoint" />
            <mxPoint x="2416" y="2224" as="targetPoint" />
          </mxGeometry>
        </mxCell>
        <mxCell id="yRr3s-q63M07JjMzN6V9-86" value="" style="endArrow=classic;html=1;rounded=0;entryX=0;entryY=0.5;entryDx=0;entryDy=0;exitX=1;exitY=0.5;exitDx=0;exitDy=0;" edge="1" parent="1" source="yRr3s-q63M07JjMzN6V9-61" target="yRr3s-q63M07JjMzN6V9-81">
          <mxGeometry width="50" height="50" relative="1" as="geometry">
            <mxPoint x="2051" y="2337" as="sourcePoint" />
            <mxPoint x="2101" y="2287" as="targetPoint" />
          </mxGeometry>
        </mxCell>
        <mxCell id="yRr3s-q63M07JjMzN6V9-87" value="" style="endArrow=classic;html=1;rounded=0;entryX=0;entryY=0.5;entryDx=0;entryDy=0;exitX=1;exitY=0.5;exitDx=0;exitDy=0;" edge="1" parent="1" source="yRr3s-q63M07JjMzN6V9-62" target="yRr3s-q63M07JjMzN6V9-81">
          <mxGeometry width="50" height="50" relative="1" as="geometry">
            <mxPoint x="2051" y="2337" as="sourcePoint" />
            <mxPoint x="2101" y="2287" as="targetPoint" />
          </mxGeometry>
        </mxCell>
        <mxCell id="yRr3s-q63M07JjMzN6V9-88" value="" style="endArrow=classic;html=1;rounded=0;entryX=0;entryY=0.5;entryDx=0;entryDy=0;exitX=1;exitY=0.5;exitDx=0;exitDy=0;" edge="1" parent="1" source="yRr3s-q63M07JjMzN6V9-63" target="yRr3s-q63M07JjMzN6V9-81">
          <mxGeometry width="50" height="50" relative="1" as="geometry">
            <mxPoint x="2051" y="2337" as="sourcePoint" />
            <mxPoint x="2101" y="2287" as="targetPoint" />
          </mxGeometry>
        </mxCell>
        <mxCell id="yRr3s-q63M07JjMzN6V9-89" value="" style="endArrow=classic;html=1;rounded=0;entryX=0;entryY=0.5;entryDx=0;entryDy=0;exitX=1;exitY=0.5;exitDx=0;exitDy=0;" edge="1" parent="1" source="yRr3s-q63M07JjMzN6V9-64" target="yRr3s-q63M07JjMzN6V9-81">
          <mxGeometry width="50" height="50" relative="1" as="geometry">
            <mxPoint x="2051" y="2337" as="sourcePoint" />
            <mxPoint x="2101" y="2287" as="targetPoint" />
          </mxGeometry>
        </mxCell>
        <mxCell id="yRr3s-q63M07JjMzN6V9-90" value="Result" style="text;html=1;align=center;verticalAlign=middle;whiteSpace=wrap;rounded=0;" vertex="1" parent="1">
          <mxGeometry x="2553" y="1990" width="60" height="30" as="geometry" />
        </mxCell>
        <mxCell id="yRr3s-q63M07JjMzN6V9-91" value="" style="endArrow=classic;html=1;rounded=0;entryX=0;entryY=0.5;entryDx=0;entryDy=0;exitX=1;exitY=0.5;exitDx=0;exitDy=0;" edge="1" parent="1" source="yRr3s-q63M07JjMzN6V9-13" target="yRr3s-q63M07JjMzN6V9-43">
          <mxGeometry width="50" height="50" relative="1" as="geometry">
            <mxPoint x="1437" y="1849" as="sourcePoint" />
            <mxPoint x="1487" y="1799" as="targetPoint" />
          </mxGeometry>
        </mxCell>
        <mxCell id="yRr3s-q63M07JjMzN6V9-92" value="" style="endArrow=classic;html=1;rounded=0;entryX=0;entryY=0.5;entryDx=0;entryDy=0;exitX=1;exitY=0.5;exitDx=0;exitDy=0;" edge="1" parent="1" source="yRr3s-q63M07JjMzN6V9-13" target="yRr3s-q63M07JjMzN6V9-44">
          <mxGeometry width="50" height="50" relative="1" as="geometry">
            <mxPoint x="1437" y="1849" as="sourcePoint" />
            <mxPoint x="1487" y="1799" as="targetPoint" />
          </mxGeometry>
        </mxCell>
        <mxCell id="yRr3s-q63M07JjMzN6V9-93" value="" style="endArrow=classic;html=1;rounded=0;entryX=0;entryY=0.5;entryDx=0;entryDy=0;exitX=1;exitY=0.5;exitDx=0;exitDy=0;" edge="1" parent="1" source="yRr3s-q63M07JjMzN6V9-16" target="yRr3s-q63M07JjMzN6V9-44">
          <mxGeometry width="50" height="50" relative="1" as="geometry">
            <mxPoint x="1437" y="1849" as="sourcePoint" />
            <mxPoint x="1487" y="1799" as="targetPoint" />
          </mxGeometry>
        </mxCell>
        <mxCell id="yRr3s-q63M07JjMzN6V9-94" value="" style="endArrow=classic;html=1;rounded=0;entryX=0;entryY=0.5;entryDx=0;entryDy=0;exitX=1;exitY=0.5;exitDx=0;exitDy=0;" edge="1" parent="1" source="yRr3s-q63M07JjMzN6V9-20" target="yRr3s-q63M07JjMzN6V9-45">
          <mxGeometry width="50" height="50" relative="1" as="geometry">
            <mxPoint x="1437" y="2030" as="sourcePoint" />
            <mxPoint x="1487" y="1980" as="targetPoint" />
          </mxGeometry>
        </mxCell>
        <mxCell id="yRr3s-q63M07JjMzN6V9-95" value="" style="endArrow=classic;html=1;rounded=0;entryX=0;entryY=0.5;entryDx=0;entryDy=0;exitX=1;exitY=0.5;exitDx=0;exitDy=0;" edge="1" parent="1" source="yRr3s-q63M07JjMzN6V9-20" target="yRr3s-q63M07JjMzN6V9-46">
          <mxGeometry width="50" height="50" relative="1" as="geometry">
            <mxPoint x="1437" y="2030" as="sourcePoint" />
            <mxPoint x="1487" y="1980" as="targetPoint" />
          </mxGeometry>
        </mxCell>
        <mxCell id="yRr3s-q63M07JjMzN6V9-96" value="" style="endArrow=classic;html=1;rounded=0;entryX=0;entryY=0.5;entryDx=0;entryDy=0;exitX=1;exitY=0.5;exitDx=0;exitDy=0;" edge="1" parent="1" source="yRr3s-q63M07JjMzN6V9-14" target="yRr3s-q63M07JjMzN6V9-47">
          <mxGeometry width="50" height="50" relative="1" as="geometry">
            <mxPoint x="1437" y="2030" as="sourcePoint" />
            <mxPoint x="1487" y="1980" as="targetPoint" />
          </mxGeometry>
        </mxCell>
        <mxCell id="yRr3s-q63M07JjMzN6V9-97" value="" style="endArrow=classic;html=1;rounded=0;entryX=0;entryY=0.5;entryDx=0;entryDy=0;exitX=1;exitY=0.5;exitDx=0;exitDy=0;" edge="1" parent="1" source="yRr3s-q63M07JjMzN6V9-22" target="yRr3s-q63M07JjMzN6V9-48">
          <mxGeometry width="50" height="50" relative="1" as="geometry">
            <mxPoint x="1437" y="2030" as="sourcePoint" />
            <mxPoint x="1487" y="1980" as="targetPoint" />
          </mxGeometry>
        </mxCell>
        <mxCell id="yRr3s-q63M07JjMzN6V9-98" value="" style="endArrow=classic;html=1;rounded=0;entryX=0;entryY=0.5;entryDx=0;entryDy=0;exitX=1;exitY=0.5;exitDx=0;exitDy=0;" edge="1" parent="1" source="yRr3s-q63M07JjMzN6V9-18" target="yRr3s-q63M07JjMzN6V9-49">
          <mxGeometry width="50" height="50" relative="1" as="geometry">
            <mxPoint x="1437" y="2030" as="sourcePoint" />
            <mxPoint x="1487" y="1980" as="targetPoint" />
          </mxGeometry>
        </mxCell>
      </root>
    </mxGraphModel>
  </diagram>
</mxfile>
